<svg width="852" height="585" viewBox="0 0 852 585" xmlns="http://www.w3.org/2000/svg" xmlns:xlink="http://www.w3.org/1999/xlink"><defs><path id="a" d="M.5 0h850v584H.5z"/></defs><g transform="translate(.469 .843)" fill="none" fill-rule="evenodd"><mask id="b" fill="#fff"><use xlink:href="#a"/></mask><path d="M428.783 26.157c108.325 0 169.935 72.324 241.167 143.502 65.37 65.32 65.37 157.009 65.37 162.445 0 73.19-36.13 145.303-84.884 192.634C563.73 608.914 563.73 625.1 428.783 638.05c-105.71 10.145-210.731-50.71-265.736-132.612-32.671-48.647-40.8-110.37-40.8-173.335 0-76.944 48.097-156.854 95.083-210.616 56.194-64.3 119.25-95.33 211.453-95.33zm-239.4 119.45c-23.493 18.662-41.778 42.43-54.98 68.474-13.22 26.089-21.556 54.446-25.393 83.524-3.816 29.133-3.358 58.952-.025 88.656 3.334 29.726 9.492 59.36 17.17 88.753 1.176 4.557-2.133 5.427-3.655.795-9.652-29.103-17.439-58.835-21.908-89.02-4.467-30.152-5.559-60.815-1.685-90.877 3.896-30.044 13.014-59.359 27.63-85.847 14.573-26.455 34.92-50.087 60.317-67.44 4.23-2.966 6.197-.01 2.53 2.982zm473.959-11.244c17.817 11.866 32.74 27.234 45.563 43.57 6.436 8.18 12.403 16.646 18.07 25.215 5.658 8.545 11.214 17.272 16.01 26.492 4.835 9.189 8.66 19.012 11.182 28.968 2.562 9.964 3.982 20.075 4.621 30.139 1.275 20.163-.577 40.047-2.745 59.712-.34 3.044-3.89 2.921-3.866-.235.126-19.796.342-39.563-1.978-58.962-2.27-19.406-7.224-38.276-16.577-55.625-4.583-8.741-9.894-17.285-15.304-25.87-5.389-8.57-10.904-17.02-16.754-25.262-11.674-16.459-24.741-32.13-40.72-45.275-2.658-2.21-.322-4.766 2.498-2.867zM340.738 26.414c-15.522 7.189-33.87 10.335-48.987 17.788-17.076 8.418-30.902 21.165-48.187 29.66-1.372.666-3.387-2.208-2.276-3.122 27.782-23.191 61.853-39.6 98.046-47.717 1.393-.32 2.72 2.773 1.404 3.391z" fill="#FFF" mask="url(#b)"/><path d="M697.513 598.154c1.657-.053 14.624-.12 30.084-3.67 21.678-4.975 37.706-14.431 46.337-27.345 18.191-27.2 13.842-50.048 11.496-62.326-.332-1.742-.623-3.258-.796-4.521-1.538-11.744-1.22-25.603 12.888-39.408l.914-.89c15.434-15.097 27.618-27.013 28.188-60.702.57-33.928 3.7-42.002 7-50.555 2.586-6.676 2.533-13.207-.105-17.476-1.843-2.966-4.8-4.708-8.565-5.04-9.242-.799-19.358 6.05-26.398 17.888l-.384.638c-6.192 10.427-16.574 27.89-32.829 36.854-1.578.878-3.169 1.729-4.746 2.593-15.58 8.433-31.688 17.158-35.32 34.794-1.021 4.961-1.38 9.31-1.71 13.513-.929 11.438-1.671 20.482-15.38 34.634-1.512 1.57-3.13 3.152-4.787 4.788-19.742 19.444-46.725 46.043-8.698 123.625.186.373.716.44.955.093 8.923-12.9 18.509-28.635 26.08-45.658a.545.545 0 0 0-.04-.532c-2.652-3.83-14.24-20.948-18.23-34.076a1.13 1.13 0 0 1 .755-1.41 1.12 1.12 0 0 1 1.405.759c3.408 11.199 12.834 25.882 16.733 31.68.238.36.795.307.968-.093 3.05-7.235 5.727-14.67 7.796-22.21 2.665-9.723 5.33-18.833 8.035-27.412a.514.514 0 0 0-.053-.439c-1.366-2.248-8.26-14.364-9.997-32.026a1.124 1.124 0 0 1 1.007-1.237 1.123 1.123 0 0 1 1.233 1.01c1.313 13.327 5.741 23.568 8.207 28.383.226.439.862.359 1.008-.107 5.635-17.476 11.403-32.558 17.395-45.512a.507.507 0 0 0-.066-.558c-1.75-2.235-7.743-11.385-4.972-29.54a1.125 1.125 0 0 1 1.286-.944c.624.093 1.048.665.942 1.29-2.188 14.35 1.432 22.796 3.527 26.294.225.373.769.333.954-.066 6.43-13.38 13.126-24.42 20.233-33.33a247.219 247.219 0 0 0 7.305-9.63c.093-.132.133-.279.093-.438-.557-2.128-2.612-10.72-1.419-17.902.106-.612.703-1.05 1.3-.931.61.106 1.034.678.928 1.303-.809 4.855.026 10.574.729 14.085.093.479.73.585 1.008.186 9.506-13.765 12.237-21.333 12.277-21.44a1.127 1.127 0 0 1 1.445-.691c.584.2.902.851.69 1.436-.186.519-4.601 12.901-22.566 35.43-3.965 4.975-7.796 10.64-11.535 16.985-.212.36.013.811.424.838 4.15.332 13.736.093 23.176-7.262a1.12 1.12 0 0 1 1.578.2c.384.492.292 1.21-.199 1.596-8.486 6.61-16.945 7.86-22.142 7.86-1.87 0-3.301-.16-4.163-.293a.525.525 0 0 0-.557.266c-6.497 11.558-12.689 25.39-18.708 41.723a.563.563 0 0 0 .345.731c3.487 1.118 14.929 3.352 27.923-9.615a1.126 1.126 0 1 1 1.59 1.596c-9.095 9.07-17.593 11.145-23.467 11.145-3.116 0-5.503-.585-6.855-1.024a.542.542 0 0 0-.69.332c-5.117 14.192-10.102 30.205-15.061 48.308-2.36 8.618-5.49 17.117-9.095 25.336-.027.054-.04.12-.08.173a240.706 240.706 0 0 1-5.224 11.04c-.212.425.159.904.61.784 6.59-1.729 23.388-7.089 38.7-19.91a1.13 1.13 0 1 1 1.446 1.742c-18.854 15.787-39.974 20.535-42.414 21.054a.491.491 0 0 0-.345.28c-6.231 11.863-13.14 22.796-19.676 32.212-.053-.053-.676.771.279.745v-.003z" fill="#FFF" mask="url(#b)" transform="rotate(1 755.531 462.157)"/><path d="M80.162 685.356c1.388-.05 12.248-.111 25.195-3.401 18.156-4.608 31.58-13.37 38.808-25.334 15.235-25.199 11.593-46.368 9.628-57.743-.278-1.614-.522-3.019-.667-4.19-1.288-10.88-1.021-23.719 10.794-36.509l.766-.825c12.925-13.986 23.13-25.027 23.607-56.238.478-31.434 3.098-38.914 5.863-46.838 2.165-6.185 2.12-12.235-.089-16.19-1.543-2.749-4.02-4.363-7.173-4.67-7.74-.74-16.212 5.605-22.108 16.572l-.322.592c-5.186 9.66-13.88 25.84-27.494 34.144-1.321.813-2.654 1.602-3.975 2.402-13.047 7.813-26.539 15.896-29.58 32.236-.856 4.596-1.156 8.625-1.433 12.52-.777 10.596-1.4 18.975-12.88 32.086-1.267 1.455-2.621 2.92-4.01 4.436-16.533 18.015-39.131 42.658-7.284 114.536.156.345.6.406.8.086 7.473-11.953 15.501-26.53 21.842-42.301a.55.55 0 0 0-.034-.493c-2.22-3.55-11.926-19.408-15.268-31.57-.155-.555.133-1.134.633-1.306.5-.173 1.033.148 1.177.702 2.854 10.375 10.749 23.979 14.013 29.351.2.333.667.284.811-.086 2.554-6.703 4.797-13.591 6.53-20.578 2.231-9.007 4.463-17.448 6.728-25.396a.52.52 0 0 0-.044-.406c-1.144-2.083-6.918-13.308-8.372-29.672-.056-.579.333-1.096.843-1.146.522-.061.989.37 1.033.937 1.1 12.347 4.808 21.835 6.874 26.295.188.407.721.333.844-.099 4.719-16.19 9.55-30.164 14.568-42.165a.51.51 0 0 0-.055-.518c-1.466-2.07-6.485-10.548-4.164-27.367.077-.58.566-.961 1.077-.875.522.086.877.616.788 1.195-1.832 13.296 1.2 21.12 2.954 24.361.189.345.644.308.8-.061 5.385-12.397 10.993-22.624 16.944-30.88 2.31-3.203 4.32-6.16 6.119-8.92a.524.524 0 0 0 .077-.408c-.466-1.971-2.187-9.931-1.188-16.585.089-.567.589-.974 1.088-.863.511.099.866.629.778 1.208-.678 4.498.022 9.796.61 13.049.078.444.611.542.844.173 7.962-12.754 10.25-19.765 10.283-19.864.166-.542.71-.838 1.21-.64.489.184.755.788.577 1.33-.155.48-3.853 11.953-18.899 32.826-3.32 4.608-6.529 9.857-9.66 15.735-.178.333.011.752.355.776 3.476.308 11.504.086 19.41-6.728.41-.357 1-.27 1.321.185.322.456.245 1.122-.166 1.479-7.107 6.124-14.191 7.282-18.544 7.282-1.565 0-2.765-.148-3.487-.27a.427.427 0 0 0-.466.246c-5.441 10.707-10.627 23.522-15.668 38.654-.089.284.033.58.289.678 2.92 1.035 12.503 3.105 23.385-8.909a.88.88 0 0 1 1.333 0 1.132 1.132 0 0 1 0 1.479c-7.618 8.404-14.735 10.326-19.655 10.326-2.61 0-4.608-.542-5.74-.95a.445.445 0 0 0-.578.309c-4.286 13.148-8.461 27.984-12.614 44.755-1.977 7.985-4.597 15.859-7.617 23.474-.023.05-.034.111-.067.16a234.417 234.417 0 0 1-4.375 10.228c-.178.394.133.838.51.727 5.52-1.602 19.588-6.568 32.412-18.447.4-.37 1-.308 1.333.136.333.443.278 1.109-.122 1.479-15.79 14.626-33.478 19.025-35.522 19.505a.423.423 0 0 0-.289.26c-5.218 10.99-11.004 21.12-16.478 29.843-.045-.049-.567.715.233.69v-.002z" fill="#FFF" mask="url(#b)" transform="rotate(-39 128.753 559.359)"/></g></svg>