<?xml version="1.0" encoding="UTF-8"?> <svg xmlns="http://www.w3.org/2000/svg" width="112" height="86" viewBox="0 0 112 86"><g fill="none" fill-rule="evenodd"><path fill="#E05345" d="M86.4 66c-.6-2.4-.4-4.7-.1-7.1.2-1.7.5-3.4 1.2-4.8 1.1-2.2 3-4 5.2-5.2a36.3 36.3 0 0 1 18.7-3.7c.2.1.2.3.3.5 1.2 6.5-1 13.7-6 18a17.4 17.4 0 0 1-19.2 2.4"></path><path fill="#0A0B09" d="M106 49c-1.1 1.8-2.8 3-4.5 4a128.4 128.4 0 0 0-15.4 12.6c-.3.2 0 .6.3.3a137 137 0 0 1 15.5-12.8 13 13 0 0 0 4.1-4V49"></path><path fill="#0A0B09" d="M102 58l-3.3.5c-1.2.1-2.3 0-3.4-.3-.3 0-.4.4-.1.5 2.1.7 4.6.1 6.8-.5V58m-9-3a12 12 0 0 0-2 6.8c0 .3.6.2.6 0 0-2.4.4-4.6 1.4-6.8m10-5a6.8 6.8 0 0 0-2 3.7c0 .3.4.4.4.1.2-1.4.8-2.6 1.6-3.7V50"></path><path fill="#E05345" d="M82.3 74.2c1.2-.6 2.5-.9 3.9-1a8 8 0 0 1 2.7 0 7 7 0 0 1 3.5 2 19.9 19.9 0 0 1 4.6 9.5l-.3.2a10.8 10.8 0 0 1-10.6-.6 9.6 9.6 0 0 1-3.8-10"></path><path fill="#0A0B09" d="M94 83a8 8 0 0 1-2.8-2 73.5 73.5 0 0 0 0 .3c.9.7 1.7 1.4 2.8 1.7m-6-1l-.6-1.8-.2-2c0-.2-.2-.2-.2 0 0 1.3.5 2.7 1 3.8m1-5.6a5.3 5.3 0 0 0-4 .1c0 .1 0 .5.2.4a7 7 0 0 1 3.8-.5m3 4.6a2 2 0 0 0-2-1l.1.4c.7-.2 1.3.1 1.9.6"></path><path fill="#0A0B09" d="M.5 79c3.5-.5 7.1-.7 10.7-1.1 3.7-.5 7.4-1 11-1.3 7.2-.9 14.4-1.5 21.5-2.2 14-1.5 28.3-3.2 42.5-2.3 4 .2 8 .7 12 1.5 3.7.7 7.5 2.2 11.4 2.2 1.9 0 1.9-3 0-3-3.6 0-7.2-1.4-10.7-2-3.3-.7-6.7-1.1-10-1.4a139 139 0 0 0-21.4 0c-14.4 1-28.9 2.9-43.2 4.7l-11.4 1.5-6.3 1c-2.1.3-4.1 1-6.2 1.3-.6.1-.5 1.2.1 1.1"></path><path fill="#0A0B09" d="M33.5 74.4c6 .8 12.8 1 18.5 3.1 5.3 2.1 9.9 5.9 15.4 7.5 1.3.3 2.3-1.7 1-2.3-5.3-2.4-10.4-5.4-15.8-7.4-6-2.2-12.6-2-19-2.3-.7 0-.9 1.2 0 1.4"></path><path fill="#F8C97C" d="M83.2 47.4c-2.3 5.2-7.9 8.2-13.4 9.5a38.2 38.2 0 0 1-30.6-5.6c-2-1.5-4-3.1-5.5-5.2a23.7 23.7 0 0 1-3.6-9c-.8-3-1.2-6.3-1-9.5.2-4.9 1.8-9.5 3.6-14 2-5.2 4.6-10.8 9.7-12.8C46.6-1 51.6.3 55.3 2.9 59 5.5 61.7 9.2 64 13c2.4 3.8 4.7 7.7 6.8 11.7 2 3.8 4 7.8 6.4 11.4 2.5 3.5 5.5 6.7 6.7 10.7l-.8.6"></path><path fill="#DB762C" d="M77 46.8c5-14 10.6-28 20.5-39C98.2 6.8 99 6 100 6c1-.1 2.2 1 1.8 2 .6-.6 1.3-1 2-1.4.2-.2.5-.3.7-.2.6 0 .6 1 .3 1.6a149.2 149.2 0 0 1-19.3 37.9c-1 1.1-2 2.3-3.4 2.9-1.4.5-3.3.1-3.9-1.3l-1.2-.7"></path><path fill="#0A0B09" d="M56.5 54.2C55.1 59.5 54 65 53 70.4c-.1.6.7.9.9.2 1.2-5.3 2.3-10.8 3.1-16.2 0-.4-.4-.6-.5-.2m8 0c-2 5.3-3.8 10.7-5.5 16.1-.2.7.8 1 1 .3 1.8-5.3 3.5-10.8 5-16.3 0-.3-.4-.4-.5-.1M48.5 73c1.7-2.2 4-.5 5.7.9.4.4 1.1-.3.6-.7-1.1-1-2.4-2.2-4-2.2-1.2 0-2.3.5-2.8 1.7-.1.3.4.6.5.4"></path><path fill="#0A0B09" d="M56.6 71.9c.2-1 1.5-1.1 2.3-.9a4 4 0 0 1 2.2 1.8c.4.5 1.2 0 .8-.5-.7-1.3-2-2.2-3.5-2.3-1 0-2.2.5-2.4 1.7 0 .4.5.6.6.2"></path><path fill="#E8802C" d="M69.9 24a10.9 10.9 0 0 0-9.8-3.9c-3.7.6-7 3.2-8.3 6.7a21 21 0 0 0-.8 6.6c0 1.7.1 3.4.8 5a12 12 0 0 0 3 4.1 28 28 0 0 0 6 5.2c4 2.3 8.8 2.5 13.5 2.2 1.7-.1 3.4-.3 5-1.1 1.4-.8 2.7-2.3 2.7-4 0-1.4-.8-2.7-1.5-4-4.2-6.6-5.8-11-10.6-16.7"></path><path fill="#F1AA51" d="M65 53c-4.2 0-8-1.5-11.9-3-1.3-.6-2.6-1.2-3.8-2a12 12 0 0 1-5.1-8.4c-.6-3.4.2-6.9 1.8-9.8a14 14 0 0 1 8-6.8c-.8 1-1.4 2-1.8 3.1-.8 2.2-.9 4.5-.9 6.8 0 1.7.1 3.5.8 5 .6 1.7 1.8 3 3 4.2 1.8 2 3.6 4 5.9 5.3 3 1.8 6.6 2.4 10.2 2.4a44.6 44.6 0 0 0 3.8-.2 17 17 0 0 1-9.9 3.4H65"></path><path fill="#E8802C" d="M71 50c-3.6 0-7.2-.5-10.3-2.4a28 28 0 0 1-6-5.2 14.5 14.5 0 0 1-3-4.2c-.6-1.5-.7-3.3-.7-5 0-2.3 0-4.6.8-6.7.4-1.1 1-2.2 1.8-3.1a11 11 0 0 1 1.8-.4l21.3 22.4h-.1a21.8 21.8 0 0 1-3.7-.1c-.5 0-.7.8-.2.9a18.6 18.6 0 0 0 3.8.3c.5 0 .6-.5.5-.8l1 1a17 17 0 0 1-3.2 3.1 41.6 41.6 0 0 1-3.8.2m-6-5.2c-.2 0-.5.4-.2.6a5.7 5.7 0 0 0 2.4 1.2c.5 0 .7-.8.1-.9a5 5 0 0 1-2-.9H65m-.4-5.1c-.4 0-.6.6-.2.8a404.3 404.3 0 0 1 3.1 1.3c.5 0 .7-.7.1-.9a375.4 375.4 0 0 1-3-1.2m-7.3-1.2c-.2 0-.5.2-.4.5.2 1 .6 1.7 1.3 2.4l.3.1c.3 0 .6-.4.3-.7-.6-.5-1-1.2-1.2-2 0-.2-.2-.3-.3-.3M64 33c-.2 0-.5.3-.2.5a153.6 153.6 0 0 1 2 1.8c.4 0 .6-.4.4-.7A143.4 143.4 0 0 1 64 33m-6-2.6c-.2 0-.4.3-.3.5l1.8 2.2.3.1c.3 0 .5-.3.3-.6l-2-2.1-.1-.1m-5.3-1c-.2 0-.4.2-.3.4.2 1 .7 1.7 1.5 2.1l.2.1c.4 0 .6-.5.2-.8-.6-.3-1-.8-1.3-1.5 0-.2-.2-.3-.3-.3"></path><path fill="#B9662F" d="M59.7 33l-.2-.1-1.4-2.4c-.2-.2 0-.5.1-.5l.2.1 1.5 2.2c.2.3 0 .7-.2.7m1.9-7h-.2L59 23.3c0-.2.1-.4.3-.4h.2a25 25 0 0 0 2.4 2.5c.2.2 0 .5-.3.5m3.9 9.1h-.2c-.7-.6-1.5-1-2.2-1.5-.3-.2 0-.5.3-.5h.3l2.2 1.5c.3.2 0 .5-.4.5m6.1-1l-.2-.1c-.6-.6-1-1.4-1.4-2.3 0-.3.1-.6.3-.6 0 0 .2 0 .2.2.4.8.8 1.4 1.4 2 .3.3 0 .8-.3.8m-4.1 8h-.2l-3-1.3c-.5-.1-.3-.7.1-.7h.1l3.2 1.1c.5.2.3.9-.2.9m10 0h-.1a4.6 4.6 0 0 1-3.4-2.4c-.1-.3.2-.6.4-.6s.3 0 .3.2c.6 1 1.7 1.7 3 1.9.5.1.3.9-.2.9m-.8 3.7l-.4-.4c.2 0 .3.2.4.4"></path><path fill="#B9662F" d="M75.8 46l-3.4-.2c-.7-.1-.4-.8.2-.8a20.7 20.7 0 0 0 4 .1l.4.2c0 .3 0 .7-.6.7h-.6m-17.2-5l-.3-.1a4.6 4.6 0 0 1-1.3-2.5c0-.2.2-.4.4-.4.1 0 .2 0 .3.3.2.8.6 1.4 1.2 2 .3.3 0 .7-.3.7m-5-9h-.2a4 4 0 0 1-1.4-2.5c0-.3.1-.5.3-.5.1 0 .2 0 .3.3a3 3 0 0 0 1.2 1.8c.4.3.2.9-.2.9m14-5c-.1 0-.3 0-.3-.2L66 24.4c0-.2 0-.4.2-.4l.2.1 1.5 2.2c.2.4 0 .7-.3.7m-.1 20c-1-.2-1.7-.7-2.4-1.3-.3-.2 0-.7.3-.7h.2c.6.6 1.3.9 2 1 .6.1.4 1 0 1"></path><path fill="#B2602E" d="M83.4 35c-.2 0-.5-.2-.4-.5a8.8 8.8 0 0 1 3.3-4.4l.2-.1c.4 0 .7.7.3 1a9.3 9.3 0 0 0-3.1 3.8l-.3.2m2 4c-.3 0-.5-.2-.4-.4l2-2.4.4-.2c.4 0 .8.3.5.6L85.6 39l-.2.1m4-13.1c-.2 0-.5-.3-.3-.6a41.4 41.4 0 0 1 1.6-2.4c.2 0 .4.2.3.4a41.3 41.3 0 0 1-1.6 2.6m5.1-2c-.3 0-.6-.3-.4-.7l1-2 .4-.3c.3 0 .6.3.5.6l-1.1 2.2-.4.2m0-7c-.3 0-.7-.3-.4-.6a13 13 0 0 1 2.3-2.3l.2-.1c.3 0 .6.3.3.6a13 13 0 0 0-2 2.2l-.4.2m4-1c-.3 0-.7-.3-.4-.7a59.5 59.5 0 0 0 1.5-2.3c.3 0 .5.3.4.5a59.2 59.2 0 0 0-1.5 2.5m-7 16a.5.5 0 0 1-.5-.6 4 4 0 0 1 1.4-2.3l.2-.1c.3 0 .5.3.3.6a4 4 0 0 0-1 2c0 .3-.2.4-.4.4M81.3 45h-.1c0-.4 0-.8-.2-1.2.3-.7.7-1.3 1.3-1.7l.2-.1c.3 0 .6.4.4.7-.4.6-.8 1.2-1 2-.1.2-.4.3-.6.3"></path><path fill="#B9662F" d="M81.8 44c-.4 0-.7-.3-.5-.6l.2-.4c.2.3.3.7.3 1"></path><path fill="#0A0B09" d="M34.3 14.2a34 34 0 0 0-7.8 0c-2.8.3-5.7 1-7.5 3 .9.4 2 .2 2.9.2 2.5-.2 5 .4 7.4.6 1.4 0 3.7 0 4.7-.9.7-.8 1.7-2.5.3-3M44 9.5a1.5 1.5 0 1 1-3 0 1.5 1.5 0 0 1 3 0"></path></g></svg> 