<svg width="157" height="145" viewBox="0 0 157 145" xmlns="http://www.w3.org/2000/svg" xmlns:xlink="http://www.w3.org/1999/xlink"><defs><path d="M37.377 58.036c-5.666 0-11.297-.592-16.544-2.637C9.66 51.045 1.491 39.849.754 27.88a34.469 34.469 0 0 1-.063-2.107c0-3.295.435-6.587.922-9.851C2.375 10.823 3.274 5.73 4.372.684c1.44 7.025 3.276 13.951 6.322 20.421 1.145 2.43 2.466 4.799 4.217 6.835 5.138 5.975 13.212 8.338 20.814 10.414 3.319.905 6.863 1.232 10.419 1.232 3.036-.001 6.082-.238 9.002-.557 4.102-.447 6.563-.766 10.189-1.772 1.57-.435 3.188-.753 4.814-.753.185 0 .369.005.554.013 1.641.076 3.242.54 4.698 1.292a42.204 42.204 0 0 1-1.157 3.583c-1.025 2.708-2.348 5.335-4.232 7.532-5.807 6.771-15.591 8.212-24.493 8.798-2.697.178-5.423.314-8.142.314z" id="a"/></defs><g fill="none" fill-rule="evenodd"><path d="M48.753 144.432c-22.766 0-41.221-2.711-41.221-6.054 0-1.847 5.632-3.501 14.512-4.611a30 30 0 0 0 5.857 3.075c5.247 2.045 10.878 2.637 16.544 2.637 2.719 0 5.445-.136 8.142-.314 7.292-.48 15.177-1.534 20.982-5.622 9.966 1.106 16.406 2.86 16.406 4.835 0 3.343-18.456 6.054-41.222 6.054" fill-opacity=".087" fill="#000"/><path d="M79.944 112.735c6.881-4.94 11.905-12.257 14.636-20.276 2.732-8.018 3.241-16.704 2.091-25.097-.633-4.617-1.756-9.166-2.159-13.808-.453-5.204.006-10.453.878-15.604 1.299-7.663 3.557-15.264 7.652-21.871 4.095-6.606 10.157-12.176 17.506-14.708 3.078-1.06 6.443-1.574 9.599-.77 3.148.802 5.833 2.84 8.225 5.036a56.31 56.31 0 0 1 15.844 25.416c3.32 11.263 3 23.449-.076 34.78-6.417 23.646-24.611 43.088-46.445 54.203-3.163 1.609-6.415 3.067-9.806 4.11-8.625 2.656-17.823 2.553-26.848 2.426l8.903-13.837" fill="#F15F46"/><path d="M154.216 31.053a56.31 56.31 0 0 0-15.844-25.416C135.98 3.44 133.295 1.403 130.147.6c-3.156-.804-6.521-.29-9.599.77-.979.338-1.935.733-2.867 1.174-2.555 19.285 2.166 56.623 2.138 64.336-.014 3.716-.477 7.418-1.106 11.08-1.791 10.43-5.145 20.995-12.306 28.788-7.01 7.63-20.17 15.046-29.892 11.599l-5.474 8.224c9.025.127 18.223.23 26.848-2.425 3.391-1.044 6.643-2.502 9.806-4.112 21.834-11.114 40.028-30.556 46.445-54.201 3.076-11.332 3.396-23.518.076-34.781" fill="#D7523C"/><path d="M128.443 57.61c-.681 1.898-1.283 3.83-1.866 5.76-.077.255.317.36.398.109.616-1.916 1.22-3.848 1.738-5.793.047-.177-.211-.244-.27-.075M132.74 59.454a17.782 17.782 0 0 1-2.152 5.06c-.131.21.203.406.33.195a18.685 18.685 0 0 0 2.131-5.17c.049-.2-.258-.286-.309-.085M139.656 63.2a7.577 7.577 0 0 0-1.651 3.479c-.045.234.317.332.358.098a7.064 7.064 0 0 1 1.526-3.343c.134-.162-.096-.396-.233-.233M147.373 55.963c-.6 2.036-1.22 4.066-1.821 6.103-.083.282.36.404.441.12.582-2.04 1.144-4.086 1.727-6.127.063-.223-.281-.317-.347-.096M142.55 72.243c-.427 1.239-.871 2.472-1.286 3.715-.088.26.325.373.412.113.415-1.241.802-2.491 1.205-3.736.069-.212-.26-.3-.331-.092M133.183 73.54a972.71 972.71 0 0 1-1.489 4.763c-.075.235.298.338.369.102.474-1.594.951-3.187 1.433-4.777.062-.202-.252-.287-.313-.087M124.132 72.828a4239.18 4239.18 0 0 0-.913 3.383c-.061.225.289.32.349.096l.892-3.388c.056-.213-.271-.303-.328-.091M127.864 83.433c-.647 1.023-1.301 2.042-1.944 3.067-.122.195.188.375.308.18.634-1.03 1.257-2.068 1.888-3.1.099-.161-.152-.306-.252-.147M131.644 85.715a544.322 544.322 0 0 0-1.668 4.039c-.111.27.336.396.44.122a540.743 540.743 0 0 0 1.548-4.073c.076-.202-.24-.28-.32-.088M137.706 86.526a8.483 8.483 0 0 1-1.634 2.938c-.186.22.14.539.314.316a9.765 9.765 0 0 0 1.638-3.166c.061-.203-.253-.29-.318-.088M118.571 99.142a90.87 90.87 0 0 0-1.555 2.755c-.134.245.244.465.375.218.493-.934.978-1.87 1.44-2.82.083-.174-.161-.322-.26-.153M118.28 89.8c-.248.775-.502 1.548-.751 2.323-.082.254.324.366.401.11.232-.78.458-1.56.691-2.34.065-.218-.271-.308-.341-.093M125.571 95.273a827.194 827.194 0 0 1-1.889 3.1c-.12.195.192.378.307.179.607-1.046 1.218-2.09 1.83-3.134.093-.16-.153-.303-.248-.145M130.552 97.39c-.42.69-.844 1.376-1.271 2.06-.149.24.237.467.38.222.408-.695.819-1.39 1.234-2.081.132-.22-.21-.42-.343-.2M110.308 107.707a8.325 8.325 0 0 0 2.739-1.018c.249-.146.019-.54-.226-.387a8.216 8.216 0 0 1-2.605 1.07c-.22.05-.125.376.092.335M103.808 114.353a12.258 12.258 0 0 0 3.71-1.153c.243-.12.03-.485-.213-.364a12.643 12.643 0 0 1-3.594 1.166c-.232.038-.131.384.097.35M95.137 117.927c.783-.001 1.565-.02 2.349-.037.25-.005.25-.398 0-.388-.784.03-1.567.06-2.349.108-.201.013-.206.318 0 .317M114.109 111.537c1.57-1.11 3.147-2.21 4.7-3.342.23-.17.008-.557-.227-.387-1.559 1.132-3.093 2.297-4.635 3.452-.161.12-.008.397.162.277M102.248 118.08a117.04 117.04 0 0 0 2.973-1.126c.268-.106.151-.546-.121-.44-1.004.397-2.003.803-2.996 1.225-.193.083-.055.414.144.342M128.66 68.315c-.191.9-.382 1.803-.575 2.705-.051.24.322.343.369.102l.53-2.718c.041-.21-.279-.301-.324-.09M121.582 55.828c.03 1.118.052 2.236.086 3.354.008.242.385.243.377 0-.035-1.118-.082-2.236-.122-3.354-.008-.22-.347-.22-.341 0M127.136 49.344c.325.47.436.987.313 1.546-.05.23.308.326.352.097.125-.651.002-1.264-.39-1.804-.118-.164-.394-.01-.275.16M145.374 65.5c.155 1.348.188 2.667.062 4.018-.026.275.4.272.427 0a13.811 13.811 0 0 0-.181-4.058c-.033-.172-.328-.136-.308.04M137.59 53.53a5.889 5.889 0 0 0-.548 3.55c.042.275.458.157.418-.116a5.855 5.855 0 0 1 .429-3.258c.089-.2-.2-.378-.299-.175M121.877 80.19c-.233.455-.378.957-.544 1.44-.091.263.33.379.418.115.155-.47.34-.942.427-1.428.03-.171-.209-.304-.301-.127M140.028 78.026c-.239.666-.443 1.346-.653 2.02-.083.268.336.382.418.116.21-.675.426-1.35.607-2.033.064-.243-.289-.334-.372-.103M121.111 105.316a14.484 14.484 0 0 1 2.928-3.041c.258-.2-.105-.567-.361-.361a13.581 13.581 0 0 0-2.898 3.208c-.136.209.19.39.331.194M121.597 64.537c-.341 1.006-.65 2.02-.962 3.036-.074.244.306.347.381.105.313-1.014.628-2.027.912-3.05.06-.214-.261-.3-.331-.091M115.773 76.754a84.751 84.751 0 0 0-.826 2.743c-.073.252.321.36.392.108.261-.918.519-1.837.748-2.765.051-.204-.249-.285-.314-.086M114.215 86.884c-.336.669-.704 1.324-.999 2.012-.105.246.244.467.369.216.336-.674.599-1.382.893-2.074.075-.176-.173-.333-.263-.154M105.808 96.56c-.73 1.608-1.736 3.078-2.922 4.383-.165.183.102.452.27.27 1.256-1.343 2.187-2.855 2.895-4.551.058-.138-.181-.24-.243-.102M108.567 100.148c-.335.449-.674.896-1.002 1.35-.141.196.188.39.326.19.314-.46.619-.93.927-1.394.104-.16-.142-.293-.251-.146" fill="#0A0B09"/><path d="M101.242 30.94c2.12.338 3.169 2.607 3.788 4.583.963 3.079.394 6.666 1.017 9.827 1.633-3.511 3.375-6.634 5.15-10.075.742-1.44 1.624-1.968 2.142-2.212 1.209-.57 2.334.868 2.848 2.057l6.195 14.364c2.754-4.376 4.498-14.562 6.672-13.895 3.694.836 2.582 12.18 6.94 16.547 2.858-7.79 5.109-16.188 7.934-15.03 1.788 1.06 1.977 3.424 2.236 5.43a23.645 23.645 0 0 0 3.368 9.424c2.49-4.534 2.858-15.808 6.232-14.138a57.025 57.025 0 0 0-1.574-6.976A56.319 56.319 0 0 0 138.346 5.43c-2.393-2.197-5.077-4.234-8.226-5.036-3.155-.805-6.52-.29-9.598.77-7.349 2.532-13.411 8.102-17.506 14.708-4.095 6.607-6.354 14.208-7.652 21.87l-.004.026c2.034-3.885 3.726-6.568 5.882-6.828" fill="#FFFFFE"/><path d="M87.47 121.19a5.484 5.484 0 0 0 2.787.257c.236-.038.137-.4-.1-.36a5.292 5.292 0 0 1-2.6-.211c-.2-.067-.282.244-.087.315M93.621 113.699c-.773.466-1.553.917-2.334 1.369-.214.123-.014.463.193.33.759-.487 1.519-.975 2.288-1.448.158-.098.013-.347-.147-.251M99.311 106.356c-1.197.945-2.419 1.854-3.585 2.837-.208.176.089.459.297.296 1.194-.94 2.329-1.95 3.493-2.928.144-.121-.062-.318-.205-.205" fill="#0A0B09"/><path d="M21.269 51.822C14.496 66.067 10.906 81.626 8.576 97.225c-.59 3.96-1.104 7.962-.858 11.959.736 11.968 8.905 23.164 20.079 27.518 7.765 3.027 16.369 2.87 24.686 2.323 8.901-.586 18.685-2.026 24.493-8.797 1.885-2.198 3.208-4.825 4.232-7.533 4.778-12.626 3.176-26.92-1.342-39.642C75.35 70.33 68.108 58.792 61.408 47.07l-40.139 4.75" fill="#F15F46"/><path d="M72.403 118.7c-3.626 1.006-6.087 1.325-10.189 1.772-6.34.69-13.269 1.004-19.421-.675-7.602-2.076-15.676-4.44-20.814-10.414-1.751-2.036-3.072-4.405-4.217-6.835-3.046-6.47-4.882-13.396-6.322-20.421-1.098 5.046-1.997 10.139-2.759 15.238-.591 3.96-1.105 7.962-.859 11.958.737 11.969 8.906 23.165 20.079 27.519 7.765 3.026 16.37 2.87 24.686 2.323 8.902-.586 18.686-2.027 24.493-8.798 1.884-2.197 3.207-4.824 4.232-7.532a42.204 42.204 0 0 0 1.157-3.583c-1.456-.752-3.057-1.216-4.698-1.292-1.812-.083-3.62.255-5.368.74" fill="#D43E37"/><g transform="translate(7.068 81.443)"><mask id="b" fill="#fff"><use xlink:href="#a"/></mask><path fill="#D7523C" mask="url(#b)" d="M.691 58.036h74.71V.684H.691z"/></g><path d="M79.162 116.247c.012 1.23.028 2.46.062 3.69.007.256.406.256.397 0-.043-1.231-.103-2.46-.169-3.69-.009-.185-.291-.188-.29 0M76.091 123.964a2.738 2.738 0 0 0-.69 1.8c-.004.205.314.205.316 0a2.416 2.416 0 0 1 .59-1.584c.126-.15-.087-.365-.216-.216" fill="#0A0B09"/><path d="M64.037 138.289c7.072-1.184 10.785-7.414 10.958-14.582.173-7.168-2.88-14.17-7.467-19.68-4.224-5.072-9.865-9.085-16.253-10.746-6.389-1.661-13.524-.813-19.001 2.87-2.487 1.672-4.577 3.863-6.531 6.135-1.575 1.832-3.084 3.746-4.191 5.893-1.736 3.366-2.422 7.209-2.356 10.995.132 7.684 3.11 12.153 8.601 17.528 0 0 9.408 6.08 36.24 1.587" fill="#FFFFFE"/><path d="M19.232 102.629c1.49-.293 3.506 1.688 4.423 2.898 2.439 3.212 3.302 9.352 4.173 12.73 2.106 8.158 3.266 11.455 3.251 20.362-.001.559-.096 1.153.168 1.645.461.857 1.607 1 2.578 1.039 1.288.053 2.766.026 3.599-.956.753-.888.658-2.194.498-3.347-1.189-8.598-1.864-17.748-2.418-26.411s-.682-17.255 5.282-23.562" fill="#F15F46"/><path d="M33.495 137.918c-1.013.043-2.05.334-2.806 1.01-.755.678-1.166 1.789-.835 2.748.296.858 1.116 1.45 1.986 1.709.869.259 1.794.236 2.701.212 1.068-.03 2.163-.063 3.154-.465.99-.401 1.869-1.256 1.985-2.318.15-1.37-1.035-2.606-2.363-2.973-1.329-.366-2.243-.141-3.822.077" fill="#0A303A"/><path d="M71.236 101.01c-1.505-.2-2.717 1.868-3.708 3.018-2.277 2.644-2.354 6.244-3.014 9.669-1.594 8.273-2.53 15.509-2.866 23.97-.022.56.168 1.146-.066 1.654-.406.883-1.541 1.097-2.509 1.197-1.28.133-2.758.197-3.65-.731-.807-.84-.794-2.15-.706-3.31.653-8.655 1.562-18.204 1.575-26.885.014-8.68-1.195-16.888-7.539-22.813" fill="#F15F46"/><path d="M59.193 137.119c1.014-.02 2.068.206 2.864.834.796.629 1.275 1.713 1.005 2.69-.242.875-1.026 1.516-1.877 1.829-.852.312-1.776.347-2.683.38-1.067.037-2.163.07-3.176-.268-1.013-.34-1.944-1.138-2.127-2.191-.235-1.358.873-2.665 2.175-3.113 1.304-.448 2.446-.184 3.819-.161" fill="#0A303A"/><path d="M18.163 66.72c-.311 1.015-.621 2.03-.925 3.047-.056.186.236.266.291.08.296-1.02.587-2.04.876-3.06.045-.156-.194-.221-.242-.067M22.622 71.265c-.585 1.82-1.174 3.638-1.754 5.46-.06.19.241.273.3.082.577-1.822 1.144-3.647 1.714-5.471.052-.166-.206-.236-.26-.071M17.415 75.47l-1.476 5.097c-.051.176.223.25.273.075.484-1.701.966-3.403 1.448-5.105.044-.157-.2-.224-.245-.067M19.625 82.115c-.488 1.81-.991 3.617-1.474 5.429-.053.195.251.278.301.083.477-1.814.935-3.633 1.407-5.448.04-.151-.193-.215-.234-.064M13.122 85.015c-.871 1.828-1.475 3.77-1.669 5.792-.019.199.285.192.308 0 .248-1.988.72-3.852 1.57-5.67.066-.14-.142-.263-.209-.122M13.401 97.13c-.173 1.687-.374 3.369-.539 5.056-.019.193.283.192.302 0 .164-1.684.29-3.371.446-5.055.012-.135-.196-.133-.209 0M12.512 108.21a3.105 3.105 0 0 0-.011 2.812c.08.162.324.02.243-.142a2.81 2.81 0 0 1-.018-2.544c.069-.143-.143-.268-.214-.125M8.897 102.276a4.297 4.297 0 0 0-.242 2.43c.03.164.281.094.25-.07a4.058 4.058 0 0 1 .237-2.292c.06-.152-.185-.217-.245-.068M17.03 94.003c-.003.896.012 1.789.039 2.684.007.232.37.233.362 0a77.495 77.495 0 0 0-.129-2.684c-.011-.173-.271-.177-.272 0M12.823 113.623c.14 1.114.264 2.23.406 3.344.025.198.341.2.313 0-.15-1.127-.319-2.251-.471-3.378-.02-.14-.265-.107-.248.034M15.507 120.997l1.505 3.49c.065.15.284.022.22-.127l-1.505-3.491c-.065-.15-.284-.021-.22.128M21.579 87.457l-.305 1.349c-.042.184.241.262.282.078l.298-1.352c.039-.177-.234-.254-.275-.075M64.619 68.712a667.89 667.89 0 0 0 1.035 3.009c.07.205.399.115.325-.09-.363-.998-.726-1.996-1.092-2.993-.061-.166-.326-.097-.268.074M69.427 64.45c-.192 1.356.09 2.66.873 3.787.132.189.445.006.31-.181-.764-1.056-1.088-2.274-.918-3.57.019-.148-.244-.185-.265-.035M70.1 73.296l1.104 2.306c.094.195.388.025.292-.171l-1.12-2.296c-.09-.186-.364-.023-.276.16M74.842 77.157c.378 1.218.753 2.437 1.135 3.654.062.197.375.113.311-.086-.385-1.216-.779-2.43-1.169-3.644-.056-.175-.332-.101-.277.076M70.36 83.044c.355.776.715 1.548 1.084 2.318.097.204.404.026.304-.178a167.48 167.48 0 0 0-1.142-2.283c-.085-.165-.321-.02-.246.143M75.95 86.514c.707 1.438 1.401 2.884 2.113 4.319.097.198.394.024.297-.174-.712-1.434-1.442-2.86-2.159-4.291-.084-.167-.333-.021-.251.146M73.812 94.219a4.578 4.578 0 0 0 .706 3.476c.127.188.433.009.304-.178a4.268 4.268 0 0 1-.719-3.218c.033-.19-.255-.272-.291-.08M80.003 95.082c.236 1.454.465 2.909.702 4.362.036.22.378.129.338-.092-.262-1.447-.532-2.892-.795-4.338-.029-.162-.271-.092-.245.068M78.453 103.176a8.16 8.16 0 0 0 .383 3.39c.062.189.362.106.297-.081a7.903 7.903 0 0 1-.426-3.31c.014-.163-.238-.16-.254 0M74.861 108.272c-.481 1.274-.436 2.597.106 3.842.099.227.433.03.333-.194a4.736 4.736 0 0 1-.125-3.561c.07-.2-.241-.281-.314-.087M76.775 128.705l-.311 1.015c-.052.168.211.24.262.072l.311-1.015c.051-.167-.212-.24-.262-.072M66.471 85.11c.143.78.286 1.559.424 2.338.035.2.345.117.305-.084a367.7 367.7 0 0 1-.458-2.327c-.034-.178-.303-.102-.271.074M61.117 74.19c.225.894.488 1.779.744 2.665.056.199.37.114.31-.086-.262-.884-.516-1.772-.808-2.647-.052-.154-.286-.093-.246.068" fill="#0A0B09"/><path d="M58.934 23.515A57.022 57.022 0 0 1 81.085 9.672c.416-.14.951-.247 1.234.09.171.204.173.498.166.765a60.235 60.235 0 0 1-6.181 24.778" fill="#F15F46"/><path d="M62.776 24.665a49.764 49.764 0 0 1 13.898-8.351c.63-.25 1.54-.384 1.815.236.118.262.056.566-.006.846-1.261 5.61-2.723 11.585-6.94 15.495" fill="#0A303A"/><path d="M27.9 24.48A57.012 57.012 0 0 0 4.932 12.043c-.425-.115-.965-.188-1.226.165-.159.215-.143.508-.118.774a60.222 60.222 0 0 0 7.709 24.346" fill="#F15F46"/><path d="M24.137 25.867a49.795 49.795 0 0 0-14.39-7.471c-.645-.21-1.561-.288-1.798.348-.1.269-.02.568.06.844 1.607 5.522 3.438 11.393 7.89 15.034" fill="#0A303A"/><path d="M18.633 46.739c-1.969 2.412-4.036 5.08-4.087 8.194-.062 3.844 2.975 7.017 6.133 9.21 13.033 9.053 31.04 8.792 45.42 2.082 3.669-1.712 4.352-2.9 2.438-8.13" fill="#D7523C"/><path d="M43.371 67.343a188.852 188.852 0 0 1-27.01-15.147c-.908-.611-1.815-1.235-2.593-2.003-1.959-1.934-2.97-4.665-3.312-7.397-1.216-9.731 5.817-19.183 14.813-23.087 8.997-3.904 19.395-3.157 28.845-.536 5.846 1.622 11.584 3.976 16.319 7.768 4.734 3.792 8.405 9.15 9.298 15.15.319 2.149.257 4.453-.807 6.348-.871 1.554-2.326 2.685-3.791 3.699a55.213 55.213 0 0 1-15.01 7.323c-6.123 1.907-13.13 3.088-17.022 8.185" fill="#F15F46"/><path d="M43.335 66.169S27.796 45.115 26.606 35.673c-1.19-9.441-4.583-18.796 15.196-18.78C61.581 16.912 58.04 36.41 58.04 36.41s-7.837 23.435-14.705 29.76" fill="#D7523C"/><path d="M43.371 67.343c3.914-7.145 9.834-13.134 16.769-17.413 6.933-4.278 15.522-6.177 23.424-4.19l-4.78 2.87c3.725.56 7.27 2.26 10.041 4.81a18.524 18.524 0 0 1-6.153 1.24c1.681.57 3.238 1.5 4.539 2.706-3.89 1.415-8.135 1.34-12.266 1.594a74.43 74.43 0 0 0-29.872 8.334" fill="#FFFFFE"/><path d="M56.015 42.49c1.454-2.421 4.739-2.571 6.035.097.255.524 1.046.064.785-.46-1.559-3.13-6.029-3.204-7.394.12-.138.338.396.538.574.243" fill="#0A303A"/><path d="M45.721 68.168c-4.351-6.89-10.12-13.033-17.307-16.872-7.186-3.84-15.877-5.2-23.638-2.726l4.947 2.567A19.146 19.146 0 0 0 0 56.563c2.004.635 4.117.925 6.219.854A12.703 12.703 0 0 0 1.857 60.4c3.971 1.17 8.202.83 12.342.828A74.429 74.429 0 0 1 44.53 67.69" fill="#FFFFFE"/><path d="M30.704 42.96c-1.551-3.201-6.016-2.776-7.347.37a.452.452 0 0 0 .83.35c1.111-2.7 4.431-2.645 5.975-.402.23.333.719.047.542-.317" fill="#0A303A"/><path d="M25.076 28.106a10.457 10.457 0 0 1 2.465 2.848c.1.172.366.016.266-.155a9.26 9.26 0 0 0-2.603-2.86c-.096-.07-.221.09-.128.167M31.392 23.945a13.91 13.91 0 0 0 1.227 3.979c.089.186.367.023.277-.161a14.127 14.127 0 0 1-1.253-3.887c-.029-.166-.276-.094-.251.069M37.716 23.74c.267 1.195.412 2.399.44 3.622.005.21.336.21.33 0a18.97 18.97 0 0 0-.49-3.7c-.043-.18-.32-.103-.28.078M34.866 33.182a7.398 7.398 0 0 1 1.123 3.908c.001.186.292.187.291 0a7.556 7.556 0 0 0-1.199-4.033c-.086-.135-.299-.012-.215.125M40.425 32.7c.018.662.033 1.323.047 1.984.004.2.319.2.31 0l-.076-1.983c-.007-.18-.286-.181-.281 0M46.753 24.262a404.987 404.987 0 0 1-.603 3.105c-.039.199.268.282.302.084.178-1.042.357-2.082.543-3.122.029-.158-.212-.226-.242-.067M54.426 25.968c-.278.568-.564 1.13-.843 1.699-.102.209.219.389.31.18.254-.582.499-1.168.753-1.75.064-.147-.147-.278-.22-.13M49.246 34.409a36.376 36.376 0 0 1-.77 4.219c-.052.212.278.302.325.09.321-1.423.565-2.86.732-4.31.022-.183-.264-.18-.287 0M42.554 40.284A19.94 19.94 0 0 0 42.801 44c.031.196.332.113.3-.083a20.586 20.586 0 0 1-.287-3.634c.002-.168-.255-.168-.26 0M45.398 47.527c-.275 1.323-.558 2.644-.816 3.97-.044.226.302.323.346.096.258-1.328.49-2.662.731-3.994.032-.17-.226-.244-.261-.072M37.117 44.462c.399 1.22.785 2.446 1.188 3.665.068.209.402.119.331-.092-.412-1.217-.842-2.428-1.259-3.644-.055-.163-.313-.094-.26.07M39.934 53.127c.016.85.027 1.699.05 2.549.005.209.333.21.326 0-.031-.85-.072-1.7-.11-2.55-.007-.17-.269-.171-.266 0M45.563 60.956c.043-.807.09-1.613.127-2.42.011-.245-.378-.247-.383 0-.015.806-.022 1.613-.031 2.42-.002.185.277.183.287 0M48.476 54.654c.569-.943 1.115-1.9 1.657-2.858.13-.23-.228-.438-.353-.207-.524.97-1.042 1.942-1.539 2.928-.078.155.144.288.235.137M50.98 45.792c.654-.667 1.319-1.324 1.972-1.993.178-.181-.103-.463-.279-.278-.643.678-1.274 1.368-1.918 2.047-.14.148.081.37.225.224M59.073 33.996a3.141 3.141 0 0 0 1.773-1.263c.14-.202-.196-.401-.331-.194a2.936 2.936 0 0 1-1.513 1.2c-.159.056-.096.305.071.257M54.108 36.636c.47-.567.945-1.128 1.399-1.708.153-.196-.122-.475-.277-.277-.464.593-.906 1.202-1.352 1.808-.098.132.124.305.23.177M61.762 28.153c.559-.483 1.136-.946 1.696-1.427.186-.158-.086-.433-.267-.268-.546.495-1.076 1.008-1.623 1.5-.133.12.061.31.194.195M52.001 20.414l-.266.856c-.065.208.265.298.326.09l.249-.861c.057-.198-.247-.281-.309-.085M43.728 19.483l.012 1.416c.002.203.326.2.315 0l-.075-1.416c-.009-.16-.253-.163-.252 0M36.099 18.182l.013 1.416c.002.202.324.2.313 0l-.075-1.416c-.008-.16-.252-.163-.251 0M65.708 35.713c.829-.778 1.669-1.545 2.498-2.325.187-.175-.096-.458-.281-.281-.82.787-1.63 1.586-2.45 2.374-.153.147.079.377.233.232M45.397 34.089c-.066-1.02-.129-2.04-.19-3.058-.014-.247-.404-.247-.385 0 .077 1.019.15 2.038.222 3.058.016.224.367.227.353 0M27.705 20.636c.565.247.946.692 1.103 1.289.056.213.389.122.331-.091-.188-.691-.662-1.197-1.324-1.457-.149-.06-.257.195-.11.259M62.99 61.343a2.897 2.897 0 0 0 .791 2.105c.159.169.413-.085.254-.253a2.578 2.578 0 0 1-.721-1.852c.003-.208-.317-.207-.324 0M57.356 64.93c.13.557.249 1.115.379 1.67.051.22.396.128.34-.093-.139-.553-.29-1.103-.428-1.656-.048-.19-.336-.11-.291.08" fill="#0A0B09"/><path d="M44.987 64.647c-1.206-.372-2.345-.024-3.002.702-.594.654-.984 1.584-.718 2.426.303.955 1.339 1.49 2.329 1.639.945.142 1.97.007 2.739-.561.77-.568 1.211-1.624.894-2.526-.318-.902-1.013-1.61-2.242-1.68" fill="#0A303A"/></g></svg>