<?xml version="1.0" encoding="UTF-8"?> <svg xmlns="http://www.w3.org/2000/svg" width="141" height="148" viewBox="0 0 141 148"><g fill="none" fill-rule="evenodd" transform="translate(-14 -2)"><g fill="#FFA246"><path d="M83.6 135.8c29.5-2.9 29.5-6.4 48.5-24.8a61 61 0 0 0 18.5-42.1c0-1.2 0-21.3-14.3-35.5C120.8 17.8 107.3 2 83.6 2c-20.1 0-34 6.8-46.2 20.8-10.3 11.8-20.8 29.3-20.8 46 0 13.8 1.8 27.3 9 38 12 17.9 35 31.2 58 29z"></path><path d="M108.5 133.7l.9 1.9a14.8 14.8 0 0 1-7.8 1.2c-.2 0-.3-.7-.1-.8l.8-.2.4-.1h-.2l-.4-.1c-.2 0-.1-.8 0-.8a26 26 0 0 0 6.4-1.1zM35.1 30.3a49 49 0 0 0-11.8 15.5 63.2 63.2 0 0 0-5.8 18.6c-1 6.4-1 13-.5 19.6.5 6.5 1.6 13 3 19.5.2 1-.5 1.2-.8.2a131 131 0 0 1-4-19.6c-.7-6.6-.7-13.4.2-20 1-6.7 3.1-13.2 6.3-19.2a44.3 44.3 0 0 1 13-15.2c.8-.7 1.2 0 .4.6zm73.3 103.4l-5.3 1.9-.4.1h.2c2 .5 4 .5 6 0h.4zm16.6-10.1a35 35 0 0 1-7.2 10.5c-.1.1-.6-.3-.5-.4a37 37 0 0 1 7.2-10.5c.1-.2.6.2.5.4zM143.3 41c3 3.5 5.1 7.7 6.8 11.8a81.9 81.9 0 0 1 3.8 12.9 29.3 29.3 0 0 1-.3 13.4c-1 4.3-2.5 8.3-4.2 12.3-.2.7-1 .4-.8-.2l.6-2.1c1-3.5 2-7 2.6-10.4a34 34 0 0 0 0-12.7 83.3 83.3 0 0 0-3.5-12.6 49.5 49.5 0 0 0-5.7-12c-.4-.6.3-1 .7-.4zM54 11.5c-7.1 2.8-14 5.8-21 8.7-.3.1-.7-.5-.5-.7a49 49 0 0 1 21.3-8.8c.3 0 .5.7.2.8z"></path></g><path fill="#DB5A09" d="M78.7 119c-17.6-.4-26.9-5-31.7-32.5-3.2-18.3 7.6-29.2 32.5-32.5a32.5 32.5 0 0 1 .8 65h.3l1.4 31h-5l1.4-31zm-3-14a4.6 4.6 0 0 0-4.2-2 4.6 4.6 0 0 0 4.5 6.7c.7-1.4.7-3.2-.3-4.6zm19.7-4.8a4.6 4.6 0 0 0-4.7.3 4.6 4.6 0 0 0 7.2 3.6c0-1.6-1-3.1-2.5-3.9zm-32-5.4a4.6 4.6 0 0 0-7.2 3.8 4.6 4.6 0 0 0 7.1-3.8zm44.4-5.8a4.6 4.6 0 0 0-6.7 4.5 4.6 4.6 0 0 0 6.7-4.5zm-29-2h-.2a4.6 4.6 0 0 0 4.2 6.9 4.6 4.6 0 0 0-4.2-6.9zm12.8-6h-.2a4.6 4.6 0 0 0 4.1 7 4.6 4.6 0 0 0-4-7zm-20.9.5A4.6 4.6 0 0 0 64 86a4.6 4.6 0 0 0 6.7-4.5zm-11.8-6.1a4.6 4.6 0 0 0-5.9 5.4 4.6 4.6 0 0 0 6-5.4zm41.2-8a4.6 4.6 0 0 0-5.6 5.8 4.6 4.6 0 0 0 5.6-5.7zm-30.6-2.3a4.6 4.6 0 0 0-4.6-.9 4.6 4.6 0 0 0 6.1 5.3c.3-1.6-.2-3.3-1.5-4.4zm12.1-5.2a4.6 4.6 0 0 0 2.3 7.8 4.6 4.6 0 0 0-2.3-7.8z"></path></g></svg> 