<svg width="210" height="268" viewBox="0 0 210 268" xmlns="http://www.w3.org/2000/svg" xmlns:xlink="http://www.w3.org/1999/xlink"><defs><path d="M82.5 13.468s1.41 10.007-4.104 16.421c-5.517 6.415-9.3 6.84-13.707 11.675-4.408 4.834-3.872 15.908-18.11 17.96-14.24 2.053-15.525-6.286-28.48-6.03C5.14 53.753-1.02 48.108.136 37.845c1.154-10.264 7.901-11.228 17.19-15.78 12.83-6.287 23.538-1.39 29.566-5.902C52.923 11.65 59.535.51 67.49.125c7.953-.384 20.178-.384 24.074 7.698 3.894 8.082 2.097 13.214-.98 12.444-3.082-.77-6.16-2.309-8.085-6.8" id="a"/></defs><g fill="none" fill-rule="evenodd"><path d="M72.463 123.67s23.669-15.78 36.563-26.171c12.894-10.392 25.98-33.677 31.559-36.37 5.581-2.695 17.897.577 7.506 19.628-10.392 19.051-54.267 39.963-73.896 46.89-1.539-1.54-1.732-3.977-1.732-3.977M26.17 162.441s15.547-11.608 22.724-17.412c7.177-5.804 16.444-15.65 16.444-15.65l2.89 3.006s-13.155 19.588-22.622 28.709c-9.47 9.12-14.288 14.795-19.57 10.96-5.284-3.834.134-9.613.134-9.613" fill="#F2B186"/><path d="M74.06 122.6s-5.189 1.327-6.345 2.29c-1.154.961-4.077 4.58-4.168 5.516-.091.936.833 2.117.833 2.117s2.181 1.347 3.849 1.218c1.667-.128 7.827-5.901 7.762-7.569-.064-1.668-1.932-3.572-1.932-3.572M30.767 162.16l-2.371-7.379-8.534 3.69.642 8.434s8.917-2.114 10.263-4.745M46.804 259.243l1.828 4.185h5.003l-1.2-6.88-5.631 2.695" fill="#F2B186"/><path d="M41.176 201.992l12.958 55.927-8.34 2.008s-3.272-7.226-4.04-11.364c-.77-4.139.287-5.196-.578-6.928-.867-1.732-8.563-16.55-9.527-18.09-.96-1.539-5.292-6.253-5.099-15.683.193-9.43 14.626-5.87 14.626-5.87" fill="#07232B"/><path d="M48.296 262.786s-.98 4.34.143 4.363c1.127.025 9.868-.383 9.868-.383s2.107-1.028 1.265-2.219c-.843-1.19-5.487-1.042-5.416-2.092-.521-.937-5.86.33-5.86.33" fill="#0A303A"/><path fill="#FFCAA6" d="M51.085 259.243l1.829 4.185h5.003l-1.201-6.88-5.63 2.695"/><path d="M45.457 201.992l12.959 55.927-8.341 2.008s-3.271-7.226-4.04-11.364c-.77-4.139.29-5.196-.578-6.928-.864-1.732-8.563-16.55-9.526-18.09-.961-1.539-5.292-6.253-5.1-15.683.193-9.43 14.626-5.87 14.626-5.87" fill="#0A303A"/><path d="M37.312 168.444l13.726 32.458s-4.106 4.378-11.93 7c-7.827 2.621-15.908 3.135-15.908 3.135s-.257-11.995-1.413-20.142c-1.154-8.146-6.093-17.447-1.283-23.99 4.81-6.543 12.91-6.586 16.808 1.54" fill="#FA9837"/><path d="M136.481 46.118s1.992 4.908 1.99 10.664c7.374.241 15.673.348 15.673.348l-9.324-22.622-8.339 11.61" fill="#FFCAA6"/><path d="M97.108 180.312l-24.993 78.743 5.223.872s15.416-22.223 21.655-34.585c6.24-12.366 7.125-32.715 7.577-35.596.452-2.88-9.462-9.434-9.462-9.434" fill="#F2B186"/><path d="M78.26 257.627s1.16 2.565.481 4.788a432.178 432.178 0 0 1-1.304 4.208h-1.208v-3.82s-1.018 1.161-1.599 2.08c-.58.917-1.304 1.74-2.755 1.74h-6.19s-.92-1.96 0-2.466c.918-.509 4.328-2.322 5.051-3.555.727-1.233 1.211-5.275 2.177-5.44.969-.168 3.12.143 3.338.578.217.437.217 1.378.217 1.378l1.791.51" fill="#07232B"/><path d="M104.275 178.303l-24.993 78.744 5.223.872s15.417-22.223 21.657-34.586c6.238-12.365 6.019-25.1 6.47-27.982.453-2.88-8.357-17.048-8.357-17.048" fill="#FFCAA6"/><path d="M156.686 63.726s.192-7.89-7.985-9.43c-8.18-1.539-12.123 3.946-16.647 9.43-4.521 5.485-11.16 11.45-12.701 17.32-1.54 5.869 3.177 10.969 2.984 13.085-.193 2.117-13.568 27.038-31.273 43.972-17.704 16.935-25.4 23.285-26.17 27.519-.771 4.234 0 11.546 7.505 15.78 7.506 4.233 13.663 1.154 19.436 7.12 5.774 5.965 12.702 26.364 34.638 25.21 21.939-1.156 37.526-14.241 48.302-15.588 10.777-1.347 13.663-8.467 6.543-17.512s-17.255-26.135-24.953-46.726c-7.696-20.59 2.245-44.297.32-70.18" fill="#F15F46"/><path d="M147.016 22.808c.487 12.474-5.433 24.78-13.32 25.087-7.883.308-14.744-11.5-15.23-23.973-.487-12.474 5.586-20.892 13.47-21.2 7.883-.308 14.593 7.611 15.08 20.086" fill="#FFCAA6"/><path d="M85.614 257.627s1.162 2.565.485 4.788c-.677 2.226-1.305 4.208-1.305 4.208h-1.21v-3.82s-1.016 1.161-1.596 2.08c-.581.917-1.305 1.74-2.758 1.74H73.04s-.919-1.96 0-2.466c.92-.509 4.331-2.322 5.055-3.555.726-1.233 1.21-5.275 2.176-5.44.969-.168 3.12.143 3.338.578.218.437.218 1.378.218 1.378l1.788.51" fill="#0A303A"/><path d="M107.724 118.652s27.858-14.353 32.86-14.995c5.006-.641.708 17.32 4.942 47.34 4.232 30.02 13.539 53.055 13.539 53.055s10.065-4.561 13.754-5.267c3.688-.705 9.334-1.09 12.573-5.997 3.238-4.907-.705-9.879-3.978-13.343-3.271-3.464-21.793-36.627-25.593-48.366-3.802-11.738-1.3-29.202-.432-35.649.864-6.446 2.169-21.448 1.779-25.883-.39-4.434-3.914-10.133-11.22-8.386-2.972 10.263-31.984 47.403-38.224 57.491" fill="#D7523C"/><path d="M75.285 124.44s23.67-15.78 36.565-26.171c12.891-10.392 25.978-33.677 31.559-36.37 5.58-2.695 17.897.576 7.503 19.628-10.391 19.051-54.266 39.963-73.895 46.89-1.54-1.54-1.732-3.977-1.732-3.977" fill="#FFCAA6"/><path d="M145.274 35.611s-2.112 7.54-8.437 11.501c.415 1.35.734 2.557.734 2.557l12.998-1.21-5.295-12.848" fill="#F2B186"/><g transform="matrix(-1 0 0 1 210 0)"><use fill="#020D26" xlink:href="#a"/><use fill="#0A303A" xlink:href="#a"/></g><path d="M30.014 138.522c3.587 7.6 1.907 17.377-4.445 20.377-6.352 2.999-14.97-1.915-18.559-9.515-3.587-7.6-.788-15.009 5.564-18.008 6.352-3 13.85-.454 17.44 7.146M28.993 163.21s15.548-11.607 22.722-17.411c7.177-5.804 16.447-15.65 16.447-15.65l2.89 3.006s-13.155 19.588-22.625 28.708c-9.467 9.12-14.287 14.796-19.57 10.961-5.282-3.835.136-9.613.136-9.613" fill="#FFCAA6"/><path d="M76.88 123.37s-5.187 1.327-6.341 2.289c-1.156.962-4.08 4.58-4.17 5.517-.092.935.835 2.116.835 2.116s2.179 1.347 3.849 1.22c1.667-.13 7.824-5.902 7.76-7.57-.064-1.668-1.932-3.572-1.932-3.572" fill="#FFCAA6"/><path d="M52.578 262.786s-.981 4.34.145 4.363c1.125.025 9.865-.383 9.865-.383s2.108-1.028 1.265-2.219c-.842-1.19-5.487-1.042-5.415-2.092-.521-.937-5.86.33-5.86.33" fill="#0A303A"/><path d="M20.761 136.243s3.593 3.785 3.721 8.21c.129 4.427-1.346 6.993-1.218 9.238.126 2.245.897 7.06-7.056 8.469-7.955 1.41-8.34-3.273-8.916-4.941-.578-1.668-6.48-7.89-7.056-13.086-.578-5.196 3.078-7.762 4.746-9.43 1.667-1.667 7.888-8.723 16.1-6.927 8.21 1.796 10.572 5.941 9.685 8.21-.884 2.27-4.81 1.797-10.006.257" fill="#E74C25"/></g></svg>