<svg width="227" height="400" viewBox="0 0 227 400" xmlns="http://www.w3.org/2000/svg" xmlns:xlink="http://www.w3.org/1999/xlink"><defs><path d="M11.475 75.763S0 67.706 0 60.055s2.996-11.212 1.687-17.583c-1.313-6.37 2.061-18.363 8.806-23.982 6.744-5.622 13.867-3 21.36-6.561 7.496-3.558 14.895-1.45 19.676 4.734 4.777 6.183 3.37 13.489 4.917 18.69 1.547 5.198 4.683 6.41 3.701 17.651-.579 6.594-6.23 10.173-7.356 14.389-1.122 4.216-2.338 9.665-6.604 13.212-4.266 3.543-34.712-4.842-34.712-4.842" id="a"/><path d="M10.194 73.375s-2.654-6.122-2.23-11.46c.42-5.342 3.51-7.17 6.464-10.12 2.95-2.952-1.126-8.711 8.432-12.506 9.554-3.795 18.69 2.42 19.532 6.55.845 4.13.705 10.108 3.655 14.216 2.95 4.108 4.453 6.392 3.633 14.24 3.816-17.161-2.507-48.078-26.119-51.59-23.608-3.514-21.36 31.199-20.939 31.48.421.28 1.932 16.172 7.572 19.19" id="b"/></defs><g fill="none" fill-rule="evenodd"><path d="M201 104.986s9.752 4.677 8.01 19.105c-1.74 14.428-9.2 50.744-17.41 56.712-8.208 5.971-31.841 8.457-41.787 6.468-9.95-1.99 51.187-82.285 51.187-82.285" fill="#E0D5D8"/><path fill="#FFCAA6" d="M186.83 380.789l2.16 7.172-9.663 3.982-4.474-8.626 11.978-2.528M21.986 258.735c-.374-.249-7.234-2.115-7.234-2.115l-2.842 9.205 8.644 3.543 1.432-10.633"/><path d="M143.676 199.292l44.443 182.741-13.932 5.306s-20.23-33.496-26.863-49.414c-6.633-15.92-5.306-28.856-6.964-36.15-1.659-7.296-28.856-73.4-28.856-73.4l1.658-31.072 30.514 1.99" fill="#F15F46"/><path d="M111.504 228.375s-20.195 71.816-30.087 74.874c-9.708 3.004-65.759-34.31-65.759-34.31l4.975-11.607s35.982 8.291 45.766 16.252c4.644-60.03 14.594-83.245 14.594-83.245s30.845 4.975 32.169 6.964c1.327 1.99 1.403 22.151-1.658 31.072" fill="#F15F46"/><path d="M77.464 201.346s25.252 8.23 30.227 10.55c4.974 2.32 3.813 16.479 3.813 16.479l9.733 23.87s-.777-15.64 9.504-17.133c10.28-1.492 33.291 47.892 33.291 47.892l-19.482-80.111-66.086-5.065-1 3.518" fill="#D7523C"/><path d="M73.716 40.41c3.913 12.112 15.906 21.166 26.029 17.897 10.126-3.274 14.546-17.634 10.63-29.749-3.915-12.111-14.684-17.392-24.81-14.118-10.123 3.27-15.766 13.856-11.85 25.97" fill="#FFCAA6"/><path d="M94.799 4.224S91.33-1.362 84.525.314c-6.802 1.68-6.654 10.187-8.755 12.395-2.097 2.21-8.99 8.044-9.37 13.914-.382 5.87 3.683 12.097 4.891 14.367 1.205 2.27 3.49 10.004 8.58 13.183 5.093 3.177 8.507 3.227 8.507 3.227s-5.96-5.41-7.41-8.334c-1.45-2.921-1.475-7.986-1.77-11.702-.292-3.716-.9-10.381 4.435-12.885 5.331-2.503 9.543 2.176 13.504 1.756 3.964-.425 9.291-.914 12.748 5.791 3.46 6.709-.018 15.953-.018 15.953s6.705-4.205 7.025-11.144c.32-6.939-4.24-11.05-5.619-13.917-1.374-2.867.17-8.352-3.978-13.022-4.148-4.669-9.799-3.676-12.496-5.672" fill="#E74C25"/><path d="M77.406 67.832s10.116 1.593 21.91.277c11.8-1.317 16.662-5.28 17.666-3.493 1.004 1.784 3.41 32.158 6.885 41.245a615.102 615.102 0 0 1 6.144 16.784s-8.234 3.726-25.367 6.162c-17.133 2.435-25.925 1.287-25.885.158.036-1.133-3.198-57.112-1.353-61.133" fill="#FA9837"/><path d="M109.604 66.022s18.015-12.985 23.468-19.259c5.45-6.273 15.41-29.431 15.41-29.431l3.626.525s-1.996 19.561-10.198 35.529c-8.205 15.967-21.856 25.428-21.856 25.428l-10.45-12.792M81.259 66.778S69.569 56.69 60.853 41.882c-8.713-14.81-11.644-27.147-11.644-27.147l-5.044 1.025s-1.223 14.615 7.472 33.777c8.694 19.162 25.439 32.388 25.439 32.388l4.183-15.147" fill="#FFCAA6"/><path d="M49.209 14.735s-1.594-4.306-4.148-5.159c-2.554-.849-9.86-7.42-11.723-5.654-1.863 1.766 5.507 8.708 7.162 10.748 1.655 2.04 3.712 2.054 3.712 2.054l5.119-1.41-.122-.58M101.385 56.76l2.683 10.626s.583 2.802-5.09 3.072c-5.676.27-8.295-1.835-8.295-1.835l.62-10.766 10.082-1.097" fill="#FFCAA6"/><path d="M106.651 66.821s2.043-.72 7.637-4.942c5.597-4.224 7.065-5.652 7.065-5.652s7.906 5.5 10.848 12.616c-5.36 5.654-11.09 11.212-11.924 12.208-.838.997-.414 4.227-.414 4.227s-10.075-6.479-13.212-18.457M90.683 68.623s-2.658-.51-5.55-1.878c-2.892-1.366-10.766-9.259-10.766-9.259s-2.479 2.734-5.72 6.364c-3.237 3.63-5.294 7.37-5.294 7.37s9.143 9.148 10.931 11.173c1.788 2.025 2.784 7.403 2.784 7.403S91.191 76.14 90.683 68.623" fill="#FA9837"/><path d="M91.27 58.425s2.413.698 5.28.482c2.87-.212 5.036-1.349 5.036-1.349l.644 2.55s-1.572 2.242-5 3.253c-3.428 1.014-6.288.762-6.288.762l.328-5.698" fill="#F2B186"/><path d="M67.971 64.63S81.295 76.386 83.72 81.702c2.428 5.313 6.64 48.475 6.64 48.475s-7.204.813-11.697-.849c-.122-5.057-1.58-38.223-1.863-40.054-.285-1.827-1.464-5.554-4.094-8.162-2.63-2.611-9.352-9.892-9.352-9.892s1.91-3.54 4.618-6.59" fill="#ED8629"/><g transform="matrix(-1 0 0 1 226.18 0)"><use fill="#020D26" xlink:href="#a"/><use fill="#0A303A" xlink:href="#a"/></g><path d="M219.946 63.278c-5.216 18.259-19.615 33.23-31.155 29.931-11.54-3.295-15.849-23.615-10.633-41.87 5.22-18.26 17.99-27.54 29.53-24.245 11.539 3.299 17.477 17.928 12.258 36.184" fill="#FFCAA6"/><g transform="matrix(-1 0 0 1 226.18 0)"><use fill="#020D26" xlink:href="#b"/><use fill="#0A303A" xlink:href="#b"/></g><path d="M204.324 117.217c1.74-6.792-2.266-13.72-9.036-15.536a2140.99 2140.99 0 0 0-21.597-5.67c-18.407-4.722-24.626-11.438-31.838-9.449-7.216 1.99-33.083 32.83-46.018 53.975-12.936 21.144-23.382 48.503-23.382 51.985 0 3.486 11.94 10.698 41.043 11.695 29.101.992 37.062-1.245 40.544-7.713 3.482-6.467 23.38-44.525 37.56-57.956 7.335-6.95 11.051-14.81 12.724-21.331" fill="#EFE6E8"/><path d="M197.817 85.235s-7.875 10.528-8.126 11.773c-.249 1.245.266 3.252.266 3.252s-3.831 8.108-13.115 6.036c-9.288-2.076-10.921-12.597-10.921-12.597s1.633-.835 2.298-1.335c.662-.496 12.436-19.982 12.436-19.982l17.162 12.853" fill="#FFCAA6"/><path d="M178.133 391.227s1.061 9.22 3.392 8.418c2.331-.802 20.015-8.198 20.015-8.198s3.604-3.597 1.028-5.292c-2.579-1.69-12.021 2.108-12.622 0-1.734-1.435-11.813 5.072-11.813 5.072M17.33 255.914s-7.402-5.597-8.43-3.356c-1.03 2.238-7.882 20.14-7.882 20.14s.115 5.09 3.119 4.396c3.003-.698 6.773-10.154 8.708-9.133 2.238-.262 4.486-12.047 4.486-12.047" fill="#0A303A"/><path d="M146.748 86.425s-9.126-4.082-26 0c-16.87 4.087-70.597 29.954-69.273 42.558 1.327 12.604 30.514 42.453 30.514 42.453l9.95-10.946s-9.619-21.227-9.619-24.212c0-2.982 34.824-14.925 34.824-14.925s27.04-15.795 29.604-34.928" fill="#EFE6E8"/><path d="M191.734 93.66s-4.238.46-8.76-3.357c-4.517-3.813-5.747-12.273-5.747-12.273l-2.342 3.83s.712 7.698 4.942 12.713c4.227 5.018 9.846 4.06 9.846 4.06s-.26-1.686 2.06-4.974" fill="#F2B186"/><path d="M148.482 17.332s1.324-3.436 4.558-5.55c3.233-2.116 7.028-6.155 7.838-4.914.805 1.244-2.115 7.028-5.227 10.136-3.108 3.112-5.78 2.116-5.78 2.116l-1.389-1.788" fill="#FFCAA6"/><path d="M188.119 142.195s4.475 6.025.827 14.151c-3.647 8.122-26.42 24.622-26.42 24.622s10.003-19.924 25.593-38.773" fill="#0A303A"/><path d="M104.96 162.191s-3.32 2.072-3.737 4.393c-.414 2.323 4.561 16.251 6.054 16.665 1.493.414 3.068-1.158 3.068-6.55 0-5.389 1.99-14.508 1.99-14.508h-7.375" fill="#FFCAA6"/><path d="M80.644 170.037l7.852-17.094-10.773-14.73s-5.144 3.788-13.852 1.176c-8.706-2.611-11.885-8.028-11.885-8.028s1.654 13.356 28.658 38.676M123.007 117.458l10.72-12.472s-30.162 8.252-46.446 21.767c22.068-2.91 35.726-9.295 35.726-9.295" fill="#E0D5D8"/><path d="M123.007 117.458s-4.04-4.81-21.453 1.658c-17.41 6.468-24.799 17.414-24.09 21.392.709 3.978 7.424 16.17 11.158 14.924 3.73-1.244 18.468-12.687 18.468-12.687l-4.42 18.659s-.782 3.73 11.362 2.485c7.673-10.446 17.493-40.377 8.975-46.431" fill="#0A303A"/></g></svg>