<?xml version="1.0" encoding="UTF-8"?> <svg xmlns="http://www.w3.org/2000/svg" width="67" height="79" viewBox="0 0 67 79"><g fill="none" fill-rule="evenodd" transform="translate(-7 -5)"><path fill="#6ECD92" d="M39.5 70.9c14.3-1.4 14.3-3.1 23.5-12 5.2-5 9-12.7 9-20.5 0-.5 0-10.3-7-17.2C57.6 13.7 51 6 39.6 6 29.7 6 23 9.3 17.1 16.1A37 37 0 0 0 7 38.4a33 33 0 0 0 4.3 18.4c5.9 8.7 17 15.2 28.2 14z"></path><path fill="#6ECD92" d="M48.5 67.1l.2 1c-1.2.4-2.5.5-3.7.3v-.5h.6l-.3-.1.1-.4c1 0 2 0 3-.3zM20.6 13.8a23 23 0 0 0-6.5 6.5 31.8 31.8 0 0 0-5.5 17.5c-.2 3-.1 6.2.1 9.3 0 .5-.3.5-.3 0a48.5 48.5 0 0 1 .8-18.8c.9-3 2.3-6 4.2-8.5a21 21 0 0 1 7-6.3c.5-.3.6 0 .2.3zm27.8 53.3a13 13 0 0 1-3.4.8h.6c.8.3 1.8.4 2.8.3h.2zm8.2-3.6a18.4 18.4 0 0 1-4 4.5c-.2 0-.3-.1-.3-.2 1.2-1.8 2.5-3.3 4.1-4.6 0 0 .3.2.2.3zm14-37.4c1.1 1.9 1.8 4 2.3 6a39.1 39.1 0 0 1 1 6.4 14 14 0 0 1-1 6.3 37 37 0 0 1-2.8 5.6c-.2.3-.5.1-.4-.2.9-1.9 1.7-3.8 2.3-5.7.7-2 1-4 .9-6a39.8 39.8 0 0 0-2.7-12.2c-.2-.3.2-.5.3-.2zm-39.8-20c-3.6.8-7 1.8-10.7 2.7-.1 0-.2-.3-.1-.4 3.3-1.7 7-2.6 10.7-2.6.2 0 .2.3.1.3z"></path><path fill="#235F3F" d="M39.2 65c-4.7-.2-9.5-1.2-11.9-6.9-1.2-3-1.3-8.8-1.3-12.8v-.8C26 33.2 32 24 39.5 24c11.6 4.6 13.2 13 13.2 24.3 0 11.1-5.6 16.4-12.9 16.7h.6l.8 19h-2.8l.8-19zm-2.8-10.1h-.1c-.4 1-.3 2 .1 3s1.2 1.5 2 1.4c.3-1 .2-2.1-.2-3-.4-1-1.2-1.5-2-1.4zm9.8-1.6c-.6-.5-1.4-.4-2 .2 0 1 .5 1.9 1.1 2.3.7.5 1.5.4 2-.2 0-1-.4-1.9-1-2.3zM33 49.7c-.6-.6-1.4-.7-2-.2-.7.5-1.1 1.4-1.1 2.4.6.5 1.3.6 2 .1.7-.4 1-1.4 1.1-2.3zm6.4-4.4a4 4 0 0 0-.6 2.9c.3 1 .9 1.7 1.6 1.8.6-.8.8-2 .6-3-.2-1-.8-1.6-1.6-1.7zm11.8 1c-.5-.4-1.2-.4-1.7.2-.6.6-.8 1.5-.8 2.4.6.4 1.2.4 1.8-.2a3 3 0 0 0 .7-2.4zm-15.7-5c-.5-.4-1.2-.4-1.7.2-.6.5-.8 1.5-.8 2.4.6.4 1.2.4 1.8-.2.5-.5.8-1.5.7-2.4zM43 39c-.7-.7-1.6-1-2.3-.7 0 1 .3 2 1 2.8.7.8 1.5 1 2.3.7 0-1-.3-2-1-2.8zm-12-1.6c-.7-.3-1.4-.1-1.9.6-.5.8-.7 1.9-.5 2.9.6.3 1.3 0 1.8-.7s.7-1.8.6-2.8zm17-5.1c-.7-.3-1.5 0-2 .8a4 4 0 0 0-.4 2.8c.6.2 1.3 0 1.8-.8a4 4 0 0 0 .5-2.8zM35.3 31c-.5-.7-1.2-.9-1.8-.5-.2 1 0 2.1.6 2.9.5.7 1.2.9 1.8.5.1-1 0-2.1-.6-2.9zm5-3.2c-.5.7-.7 1.8-.5 3 .2 1 .7 1.8 1.3 2 .4-.7.6-1.9.4-3-.2-1-.7-1.8-1.3-2z"></path></g></svg> 