<svg width="280" height="494" viewBox="0 0 280 494" xmlns="http://www.w3.org/2000/svg" xmlns:xlink="http://www.w3.org/1999/xlink"><defs><path d="M164.98 61.72s-5.97-11.192-3.318-19.132c2.654-7.94 7.54-5.728 12.521-8.49 4.982-2.764 4.75-9.508 11.984-10.844 7.234-1.336 13.004 5.148 13.054 8.6.05 3.454-.51 8.304 2.29 12.166 2.796 3.859 4.843 8.771 4.843 8.771s6.334-6.816 5.635-15.166c-.699-8.35-7.145-12.579-8.187-16.198-1.043-3.618.162-12.463-9.165-18.433-9.33-5.971-20.28-1.248-22.037-.769-1.757.479-8.713-2.873-14.792 3.909-6.079 6.785-3.773 14.672-4.515 17.753-.737 3.082-5.407 5.964-2.622 17.11 2.788 11.145 14.309 20.723 14.309 20.723" id="a"/></defs><g fill="none" fill-rule="evenodd"><path d="M107.447 221.958s-8.674-5.419-10.513-3.774c-1.838 1.646-4.642 6.489-4.256 10.405.386 3.916 3.29 6.237 3.29 6.237s12.58-.382 15.77-6.237c3.193-5.859-4.291-6.631-4.291-6.631" fill="#F2B186"/><path d="M159.086 143.5s3.793 55.814-3.17 63.654c-6.967 7.836-52.466 15.031-52.466 15.031l3.997 8.285s50.612 1.065 64.836-7.643c14.224-8.71 13.768-59.878 13.768-59.878l-8.419-15.097-18.546-4.352" fill="#F2B186"/><path d="M164.293 116.268s-5.624 4.384-6.786 17.155c-1.163 12.772 0 27.865 0 27.865l16.835-.772-10.05-44.248" fill="#E0D5D8"/><path d="M93.67 315.223s-3.29-16.148.213-38.656 7.825-39.667 7.825-39.667l-5.118-1.363s-8.36 15.958-13.776 43.788c-5.418 27.826-1.927 45.943-1.927 45.943l12.784-10.045" fill="#FFCAA6"/><path d="M101.708 236.9s1.127-2.128 1.286-4.828c.158-2.695-3.148-10.864-3.82-11.852-.668-.99-3.858 2.336-3.812 5.897.047 3.565 1.228 9.42 1.228 9.42s1.688 2.317 5.118 1.363" fill="#FFCAA6"/><path d="M97.602 260.96s2.21-9.253 14.166-8.983c11.961.267 15.055 8.744 22.926 13.14 7.867 4.394 18.109-15.422 32.306-2.843 14.2 12.575-4.272 16.367-8.296 24.176-4.028 7.813-6.982 20.539-27.733 24.096-20.755 3.557-35.512-2.542-42.402-11.571-6.886-9.03-.278-17.553.293-21.04.572-3.484-2.108-15.368 8.74-16.974" fill="#E74C25"/><path d="M15.541 435.267s-1.487 1.63-2.147 1.592c-.66-.04-7.701-5.071-11.837-8.767-4.137-3.7 1-1.916 3.514-.081 4.928 2.649 10.47 7.256 10.47 7.256" fill="#0A303A"/><path d="M21.736 429.177s-5.731 6.4-6.403 6.125c-.672-.274-10.262-7.291-10.262-7.291s6.029 2.904 6.407 2.502c.379-.405 4.044-4.237 4.044-4.237l6.214 2.9" fill="#FFCAA6"/><path d="M99.166 448.665s.827 2.047.506 2.626c-.32.58-7.901 4.75-13.022 6.882-5.125 2.128-1.294-1.734 1.444-3.21 4.522-3.293 11.072-6.298 11.072-6.298" fill="#0A303A"/><path d="M96.355 440.446s3.29 7.937 2.754 8.424c-.537.486-11.015 6.094-11.015 6.094s5.225-4.175 5.028-4.693c-.2-.513-2.07-5.476-2.07-5.476l5.303-4.349" fill="#FFCAA6"/><path d="M78.37 386.296s-1.418 26.174-.78 32.18c.632 6 15.17 30.842 15.17 30.842s1.614 2.286 6.186-1.827c.715-7.095-6.793-29.99-7.23-31.009-.436-1.02 7.532-20.345 8.466-23.33.939-2.986 5.33-8.922 4.936-16.492-.398-7.57-21.77-6.21-21.77-6.21l-4.979 15.846M123.281 286.392c-1.494 11.857-10.03 22.423-18.77 21.319-8.74-1.1-14.378-13.456-12.88-25.312 1.495-11.86 9.563-18.731 18.303-17.627 8.74 1.105 14.846 9.764 13.347 21.62" fill="#FFCAA6"/><path d="M67.443 362.487l-55.965 68.026 5.19 3.9s22.293-16.764 26.325-20.715c4.028-3.947 5.735-6.566 6.364-7.76.626-1.189 27.14-17.707 29.012-19.642 1.87-1.938 7.38-15.093 7.38-15.093l-18.306-8.716" fill="#FFCAA6"/><path d="M91.218 312.11s7.609 1.885 14.738 2.487c7.126.602 16.012-.769 16.19.676.174 1.44-5.144 36.693-11.93 63.624-29.823-2.522-48.392-17.106-48.392-17.106s12.594-15.64 17.553-26.868c4.96-11.223 8.852-23.88 11.841-22.813" fill="#FA9837"/><path d="M114.646 314.678s11.42-11.88 20.507-32.766c9.092-20.886 14.626-37.693 14.626-37.693l5.051 1.59s-1.479 17.955-11.798 44.36c-10.32 26.405-22.968 39.838-22.968 39.838l-5.418-15.329M99.757 303.409l-2.564 9.964s1.263 2.398 4.519 3.487c3.251 1.085 7.14-2.116 7.14-2.116l-.05-9.408-9.045-1.927" fill="#FFCAA6"/><path d="M149.779 244.219s.19-2.399 1.498-4.762c1.31-2.364 8.474-7.493 9.57-7.972 1.097-.475 2.013 4.04.066 7.025-1.95 2.982-6.083 7.3-6.083 7.3s-2.664 1.054-5.051-1.591" fill="#FFCAA6"/><path d="M99.348 304.988s1.92 1.344 4.573 2.028c2.657.68 4.893.147 4.893.147l.008 1.876s-2.229 1.816-5.419 1.727c-3.19-.085-5.33-.819-5.33-.819l1.275-4.959" fill="#F2B186"/><path d="M110.648 314.76s2.264-.29 4.84-2.758c2.572-2.472 4.812-5.975 4.812-5.975l11.872 8.779-13.02 20.62-8.504-20.667M117.029 347.27s-6.914 44.163-18.056 72.337c-17.387.556-36.16-7.18-45.224-19.979-9.069-12.799-31.982-13.197-38.443-16.796-6.458-3.603-13.216-15.413 3.966-26.768 17.182-11.35 36.956-7.577 46.858-10.926 9.899-3.344 13.92-14.08 13.92-14.08l36.979 16.212" fill="#FA9837"/><path d="M85.854 333.602s-5.847 12.498-12.637 17.43c-6.793 4.935-15.035 1.603-31.414 11.026-16.383 9.423-19.673 22.968-19.673 22.968s-7.489-.352-11.98-5.91c-4.496-5.557-2.781-13.092 2.437-19 5.217-5.91 18.016-11.093 26.814-12.429 8.798-1.332 18.658-.633 25.795-2.665 7.14-2.031 11.941-7.565 15.027-14.548 4.16-1.367 5.63 3.128 5.63 3.128" fill="#ED8629"/><path d="M93.273 296.862s-1.39-8.55-.309-13.1c1.081-4.545 3.793-9.018 3.793-9.018s1.869 5.04 8.345 7.686c6.473 2.645 13.502 1.19 15.333 4.993 1.834 3.808-.726 9.976-.726 9.976s10.408-11.992 4.237-24.93c-6.176-12.934-20.96-12.61-27.525-6.816-6.566 5.79-10.463 23.586-3.148 31.21" fill="#E74C25"/><path d="M197.1 440.38a336.863 336.863 0 0 1-.015-18.522L189.4 231.404l18.148-2.178-.035.633 31.723-1.533.595 53.965c.622-4.5-11.123 59.738-15.804 101.657-.622 5.592 1.27 25.783.155 45.09-1.12 19.31-11.046 56.417-11.046 56.417l-14.015.877s-1.325-22.505-2.02-45.951" fill="#D7523C"/><path d="M270.086 228.847s3.7 17.349 5.77 60.755c1.978 41.44-2.066 83.053-1.494 93.543h-26.865l-22.705-101.167-5.029-53.42 50.323.29" fill="#F15F46"/><path d="M213.055 483.474s2.734 9.33 0 9.481c-2.734.147-24.026 0-24.026 0s-5.21-2.055-3.256-4.708c1.95-2.657 13.263-2.726 13.004-4.997 1.19-2.078 14.278.224 14.278.224M275.173 482.38s2.753 10.424.019 10.575c-2.734.147-24.03 0-24.03 0s-5.21-2.055-3.256-4.708c1.955-2.657 13.595-3.592 13.336-5.866 1.193-2.078 13.93 0 13.93 0" fill="#0A303A"/><path d="M247.497 383.145l13.332 99.236h15.576s5.17-37.682 2.53-58.72c-2.646-21.032-4.573-33.116-4.573-40.516 0-7.396-26.865 0-26.865 0" fill="#F15F46"/><path d="M186.198 100.553s-23.315 9.81-24.389 22.057c-1.073 12.246 20.767 96.138 21.693 107.593.927 11.455-.714 23.11 14.012 25.258 14.726 2.147 73.128-11.918 79.543-22.64 4.391-7.341-2.166-23.048-7.233-31.325-5.071-8.276-20.21-101.24-27.552-108.107-7.338-6.866-36.887.954-36.887.954l-19.187 6.21" fill="#EFE6E8"/><path d="M160.145 47.338c3.954 19.697 17.87 36.709 30.32 34.21 12.448-2.499 18.72-23.562 14.765-43.259-3.95-19.7-16.633-30.572-29.085-28.073-12.447 2.499-19.951 17.422-16 37.122" fill="#FFCAA6"/><g><use fill="#020D26" xlink:href="#a"/><use fill="#0A303A" xlink:href="#a"/></g><path d="M199.46 71.233l2.067-1.352 7.438 23.844s.58 7.16-9.315 10.424c-9.899 3.26-13.452-3.596-13.452-3.596l-3.016-23.759 16.279-5.561" fill="#FFCAA6"/><path d="M183.734 81.12s5.017 1.614 10.683-1.086c5.665-2.7 7.562-8.709 7.562-8.709l1.645 5.272s-.676 7.489-7.303 11.069c-6.631 3.584-11.393 2.865-11.393 2.865l-1.194-9.412" fill="#F2B186"/><path d="M255.673 141.175l-13.027-10.54s11.69 62.075 15.66 75.542c3.971 13.463 6.366 21.964 4.346 27.58-2.024 5.618-4.708 9.577-4.708 9.577s11.76-4.893 17.881-7.94c6.122-3.044 3.09-15.723 1.128-20.686-1.958-4.958-6.392-12.474-7.597-15.853-1.205-3.38-13.683-57.68-13.683-57.68" fill="#E0D5D8"/><path d="M95.505 313.048s-.795.143-1.664-2.804c-.873-2.946-1.244-7.086-1.244-7.086s-5.82-1.279-13.66 1.24c-.483 10.157 1.286 26.076 1.286 26.076l6.164-.467 9.118-16.959" fill="#FA9837"/><path d="M83.938 303.208s-.405 8.832.514 14.54c.92 5.709 3.53 10.617 1.402 15.854-4.45-.177-6.075-1.904-6.075-1.904s.147-3.526-.166-7.72c-.317-4.19-1.306-14.888-.676-19.58 1.522-.453 5.001-1.19 5.001-1.19" fill="#ED8629"/><path d="M233.327 129.785s-1.07 48.728-13.189 68.853c-12.123 20.126-53.922 29.95-53.922 29.95l1.549 8.544s59.591-5.013 74.881-23.787c15.294-18.773 17.619-68.32 17.426-86.896-11.03-.194-26.745 3.336-26.745 3.336" fill="#FFCAA6"/><path d="M166.216 228.589s-9.968 1.425-11.806 2.862c-1.839 1.44-1.356 7.728-1.356 7.728s-1.062 5.298-.054 6.051c1.004.757 13.506-3.244 17.279-9.048 3.773-5.805-4.063-7.593-4.063-7.593" fill="#FFCAA6"/><path d="M239.854 91.902s7.446-1.336 15.572 13.128c8.13 14.46 5.627 37.296 5.627 37.296l-30.785 1.174s-12.18-45.507 9.586-51.598" fill="#EFE6E8"/></g></svg>