<?xml version="1.0" encoding="UTF-8"?> <svg xmlns="http://www.w3.org/2000/svg" width="346" height="355" viewBox="0 0 346 355"><path fill-rule="evenodd" d="M32.5 116a38.5 38.5 0 1 1 0-77 38.5 38.5 0 0 1 0 77zm0-61.6a23.1 23.1 0 1 0 0 46.2 23.1 23.1 0 0 0 0-46.2zm-1-22.4c-2 0-4-.8-5.3-2.3A8.3 8.3 0 0 1 24 24V8c0-4.4 3.3-8 7.5-8C35.6 0 39 3.6 39 8v16c0 2.1-.8 4.2-2.2 5.7a7.3 7.3 0 0 1-5.3 2.3zm41.8 17a7.3 7.3 0 0 1-5.1-12.5L78.5 26A7.4 7.4 0 0 1 89 36.5L78.6 46.8a7.3 7.3 0 0 1-5.2 2.2zM102 84H86c-4.4 0-8-3.4-8-7.5s3.6-7.5 8-7.5h16c4.4 0 8 3.4 8 7.5s-3.6 7.5-8 7.5zm-21.3 48a7 7 0 0 1-5.2-2.2L65 119.5a7.4 7.4 0 0 1 10.4-10.4l10.3 10.4a7.3 7.3 0 0 1-5.1 12.5zm-95.4 0a7.3 7.3 0 0 1-5.2-12.5L-9.5 109A7.4 7.4 0 0 1 1 119.5l-10.4 10.3a7.3 7.3 0 0 1-5.2 2.2zm46.2 19c-2 0-4-.8-5.3-2.3A8.3 8.3 0 0 1 24 143v-16c0-4.4 3.3-8 7.5-8 4.1 0 7.5 3.6 7.5 8v16c0 2.1-.8 4.2-2.2 5.7a7.3 7.3 0 0 1-5.3 2.3zm313.6 193L186.8 44.2a14 14 0 0 0-1.2-1.8c-.5-.5-1-.9-1.7-1.3-.5-.3-1-.6-1.7-.7a7.7 7.7 0 0 0-5.9.7l-1.6 1.3a9 9 0 0 0-1.2 1.7v.1l-85 160.9L66.2 164l-.2-.2c-.3-.5-.6-1-1.1-1.5a5 5 0 0 0-1.5-1 2 2 0 0 0-1-.6l-1-.4a7.5 7.5 0 0 0-5.5.7 7.3 7.3 0 0 0-3 3l-98 180a7.6 7.6 0 0 0 13.3 7.2l91.3-167.9 22.4 41 .4.9L151 351a7.6 7.6 0 1 0 13.3-7.2l-67-123 23.4-44.5 26.5 26.4c3 3 7.8 3 10.8 0l24.8-24.7 24.8 24.7c3 3 7.7 3 10.7 0l23.2-23 90.4 171.1a7.4 7.4 0 0 0 6.7 4.1c1.2 0 2.4-.3 3.5-.8A7.5 7.5 0 0 0 345 344zM212.8 186.9L188 162.2c-3-3-7.7-3-10.7 0l-24.8 24.6-24.5-24.3 52.2-98.9 53.9 102-21.3 21.2z" opacity=".1"></path></svg> 