<?xml version="1.0" encoding="UTF-8"?> <svg xmlns="http://www.w3.org/2000/svg" width="46" height="111" viewBox="0 0 46 111"><path fill="#DB5A09" fill-rule="evenodd" d="M32.1 97h.5l.1.3a106.3 106.3 0 0 1 .2 13.4l-.3.1a.4.4 0 0 1-.4-.4 106.6 106.6 0 0 0 0-13.4zM4.8 11.4c-.7-4.5.4-8.3 3-10.1 1-.7 2.1-1 3.2-.6 1.6.5 3 2.2 3.7 4.4 1 2.8 1.9 5.5 8.8 14.1 7 8.6 6.4 14.2 5.7 21.3v.4c-.8 6.4 2 10 5 12.6l1 1a24 24 0 0 1 10.3 18c.5 5.1-1.6 10.9-6 16.8-3.2 4.1-6.5 7-6.9 7.3-.2.2-.2-.1-.2-.1A100.9 100.9 0 0 0 30.6 84 35 35 0 0 0 37 69.7c0-.2-.1-.4-.3-.4-.2 0-.4.1-.5.3a34.4 34.4 0 0 1-5.6 13.2c0 .2-.3.1-.3 0l-1-3.9a60 60 0 0 0-3-8.3A209.7 209.7 0 0 1 20 55c.4-.2 1.2-.5 2-1.2a11 11 0 0 0 3.6-7.8c0-.2-.2-.4-.4-.4s-.3.1-.4.4c-.5 6-3.9 7.8-5 8.3l-.3-.1a94.6 94.6 0 0 1-4-14.6l1.2-.8a12 12 0 0 0 4-6.7c0-.2-.1-.4-.3-.5-.2 0-.4.1-.5.3-.8 3.9-3.2 6-4.3 6.8l-.3-.1a48 48 0 0 1-.6-6.8 42 42 0 0 0-1.8-13.6c0-.2-.2-.3-.4-.3-.2.1-.3.3-.3.5 0 0 1 2.5 1.4 8 0 .2-.1.3-.3.2-.9-.8-2.3-2-3.1-3.4a.4.4 0 0 0-.6.4 15.7 15.7 0 0 0 4.1 4.3l.2 4c0 3.7.7 8 1.9 12.6 0 .2-.1.3-.2.2-1.3-.4-4-1.7-6.5-5.8a.4.4 0 0 0-.5-.1c-.1 0-.2.3-.1.5 3.1 5.1 6.6 6.2 7.5 6.3l.1.2c1.2 4.5 3 9.5 5.2 15 0 .2-.1.4-.3.3-1.6-.7-4.9-2.3-8-5.3a.4.4 0 0 0-.5 0c-.2.1-.2.3 0 .5 4 3.9 8 5.5 9.1 5.8h.1l.1.2 3.8 8.6c1 2.3 2 4.7 2.7 7.2 0 .1-.1.3-.3.2A47 47 0 0 1 17.1 74a.4.4 0 0 0-.5.2c-.1.1 0 .4.1.5a49.4 49.4 0 0 0 12 4.8 93.4 93.4 0 0 1 3 17s-.2.2-.3.1C5.4 85.2 6.6 72.8 7.6 63.7l.2-2.2a15 15 0 0 0-3.4-12A34 34 0 0 1 2 45.8c-2.7-5-.7-10.4 1.4-15.6l.2-.7.7-1.6c2.2-5.7 1.2-12.3.6-16.3z"></path></svg> 