<?xml version="1.0" encoding="UTF-8"?> <svg xmlns="http://www.w3.org/2000/svg" width="25" height="42" viewBox="0 0 25 42"><path fill="#DB5A09" fill-rule="evenodd" d="M24 29.6c.9 1.3 0 3.3-.8 4.4-1 1.4-2.6 2-4 2.5-1.5.5-3 1-4.4 2a5 5 0 0 0-2 2.8h-.1A95.7 95.7 0 0 0 13 37c.7-2.3 3.4-3.4 5.4-4.3 1.9-.8 4-1.6 5.6-3zm-21.4.7v.2c2.3 3 6.3 3.5 9.4 5.5h.2v4.5c-1.4-1.7-3.2-3-4.8-4.3-1.9-1.6-4.2-3.4-5-5.9h.2zM24 17.8c1 1.3.7 3.3-.1 4.5-1 1.5-2.5 2.6-3.9 3.7-1.2 1-2.6 2-3.2 3.5l.1.2c2 .3 4.1-1.7 6-.8l.7.4c-1.7 1.7-4.4 2.5-6.5 3.5-1.7.7-3.5 1.7-4.4 3.4a80.6 80.6 0 0 1 .3-8.5c4.2-2.7 6.9-7 11-9.9zM.9 16.4c3.3 3.7 7.5 6.3 11.5 9.2h.2a371.5 371.5 0 0 1-.4 9.7c-3-1.8-6.8-2.3-9-5.1 1.7 0 4.3 1.3 4.8-.8.7-3.4-4-5.3-5.6-7.5-.9-1.3-1.7-3-1.7-4.6 0-.3 0-.6.2-.9zM22 8.5c.4.7.6 1.6.6 2.3 0 1-.4 2-1 3-1 1.7-2.6 3-3.7 4.7v.3c1 .7 2 .2 2.9-.3.8-.5 2.1-1.8 3-1-4 2.7-6.7 7-10.7 9.7l.3-6.1a415 415 0 0 0 .3-3.3c3-2.8 6.1-5.5 8.3-9v-.3zM12.6 25zm-7-16c1.8 3 4.5 5.3 7.4 7l-.2 5.3-.2 3.7-.6-.4c-3.5-2.6-7.2-5-10.2-8.2l-.5-.5.6-.2c.6 0 1.2.4 1.8.7 1.2.7 4 3 4.4.2.2-1.5-.7-2.8-1.4-4-.4-.7-.9-1.4-1-2.3A2 2 0 0 1 5.6 9zm7.1-8C14-.1 15 2.2 15.4 3c.5 1.3.7 2.6 1.1 4l.6 1.8c.1.3.2.5.5.3l.4-.3 1.2-.7c.5-.2 1.4-1 2-.6.3.2.6.5.8.9-.1-.2-.4-.1-.5 0-2 3.5-5 6.1-8 8.8V11l-.6-10c0-.2-.1-.2-.3-.2h.1zm-.4.3c.1 3.4.5 6.7.6 10v4A21 21 0 0 1 6 8.2l.3-.2c.9-.3 2 .9 2.8 1.2 1 .4 1.7-.1 2.2-1 .6-1 .5-2.3.5-3.4 0-1 0-2.7.5-3.7z"></path></svg> 